<svg xmlns="http://www.w3.org/2000/svg" width="50" height="50" viewBox="0 0 50 50">
  <path id="volunteer_activism_FILL0_wght400_GRAD0_opsz48" d="M38.071,29.754q-2.8-2.561-5.327-5A56.5,56.5,0,0,1,28.31,20a26.388,26.388,0,0,1-3.036-4.482,9.01,9.01,0,0,1-1.131-4.177,7.294,7.294,0,0,1,2.083-5.3A6.944,6.944,0,0,1,31.4,3.9a7.059,7.059,0,0,1,3.542,1.006A11.029,11.029,0,0,1,38.071,7.62,11.029,11.029,0,0,1,41.2,4.906,7.059,7.059,0,0,1,44.738,3.9a6.944,6.944,0,0,1,5.179,2.134A7.294,7.294,0,0,1,52,11.339a9.01,9.01,0,0,1-1.131,4.177A26.388,26.388,0,0,1,47.833,20,56.494,56.494,0,0,1,43.4,24.754Q40.869,27.193,38.071,29.754Zm0-5.061Q42,21.034,45.214,17.437t3.214-6.1a3.724,3.724,0,0,0-1.042-2.713,3.543,3.543,0,0,0-2.649-1.067,4.44,4.44,0,0,0-1.994.488A6.017,6.017,0,0,0,40.75,9.876l-2.679,3.354L35.393,9.876A6.017,6.017,0,0,0,33.4,8.046,4.44,4.44,0,0,0,31.4,7.559a3.543,3.543,0,0,0-2.649,1.067,3.724,3.724,0,0,0-1.042,2.713q0,2.5,3.214,6.1t7.143,7.256ZM33.31,53.9,14.8,48.473v3.476H2V27.924H20.393l15.179,5.854A6.276,6.276,0,0,1,38.28,35.76a6.15,6.15,0,0,1,1.1,3.933h6.786a5.4,5.4,0,0,1,4.167,1.829A7.053,7.053,0,0,1,52,46.461v1.585ZM5.571,48.29h5.6V31.583h-5.6Zm27.5,1.829L48.31,45.363a3.21,3.21,0,0,0-.893-1.585,1.947,1.947,0,0,0-1.25-.427H33.845a20.32,20.32,0,0,1-6.19-.915l-4.821-1.524,1.31-3.537,4.345,1.463a16.106,16.106,0,0,0,2.827.671,35.029,35.029,0,0,0,4.256.183A3.985,3.985,0,0,0,35.3,38.26a1.754,1.754,0,0,0-.923-1.006L19.8,31.583h-5V44.632ZM11.167,39.937ZM35.571,39.693ZM11.167,39.937ZM14.8,39.937ZM38.071,16.1Z" transform="translate(-2 -3.9)" fill="#fff"/>
</svg>
