<svg xmlns="http://www.w3.org/2000/svg" width="50" height="50" viewBox="0 0 50 50">
  <path id="draw_FILL0_wght400_GRAD0_opsz48" d="M38.4,56a2.183,2.183,0,0,1-1.546-.625,1.946,1.946,0,0,1-.663-1.458,1.913,1.913,0,0,1,.663-1.493,2.252,2.252,0,0,1,1.546-.59,14.831,14.831,0,0,0,7.327-1.667Q48.71,48.5,48.71,46.278q0-1.6-2.172-3.125a16.5,16.5,0,0,0-5.854-2.361l3.461-3.264a14.631,14.631,0,0,1,6.811,3.646,7.334,7.334,0,0,1,2.172,5.1q0,4.653-4.492,7.188A20.463,20.463,0,0,1,38.4,56ZM14.837,35.583q-4.713-.972-6.775-3.056A6.141,6.141,0,0,1,6,28.222a6.089,6.089,0,0,1,1.915-4.375q1.915-1.944,8.837-4.306a27.324,27.324,0,0,0,6.259-2.708,3,3,0,0,0,1.4-2.431,3.684,3.684,0,0,0-1.62-2.986,8.178,8.178,0,0,0-5.007-1.25,10.379,10.379,0,0,0-3.387.486,6.931,6.931,0,0,0-2.5,1.528,2.549,2.549,0,0,1-1.51.66,2.238,2.238,0,0,1-1.657-.451A1.741,1.741,0,0,1,7.878,11,1.927,1.927,0,0,1,8.43,9.542a9.149,9.149,0,0,1,3.756-2.535A14.879,14.879,0,0,1,17.782,6a13.087,13.087,0,0,1,8.027,2.257A7.264,7.264,0,0,1,28.828,14.4a6.383,6.383,0,0,1-2.1,4.826q-2.1,1.979-8.211,4.132A37.645,37.645,0,0,0,12,26.1q-1.583,1.007-1.583,2.118t1.988,2.118a27.278,27.278,0,0,0,5.965,1.91ZM51.361,24.889,41.935,16l3.314-3.125a4.1,4.1,0,0,1,5.891,0l3.535,3.333a3.573,3.573,0,0,1,0,5.556Zm-38,26.944h3.093L41.862,27.875l-3.093-2.917L13.364,48.917ZM8.946,56V47.111L38.769,18.986l9.426,8.889L18.371,56ZM38.769,24.958l3.093,2.917Z" transform="translate(-6 -6)" fill="#3d3d3d"/>
</svg>
