<svg xmlns="http://www.w3.org/2000/svg" width="50" height="50" viewBox="0 0 50 50">
  <path id="hotel_class_FILL0_wght400_GRAD0_opsz48" d="M36.8,38.595l9.5-9.648L51,29.4,40.558,39.963,43.707,56l-4.088-2.934Zm-5.138-18.84L28.514,11.02,30.282,6l5.083,14.146ZM14.425,47.4,23.1,41.267l8.674,6.193-2.32-11.6,7.624-7.823L27.022,26.991,23.1,16.039,19.177,26.926,9.122,27.969l7.624,7.823ZM9.453,55.544l3.591-18.318L1,24.9l15.912-1.63L23.1,6l6.188,17.275L45.2,24.9,33.155,37.226l3.591,18.318L23.1,45.831ZM23.1,33.053Z" transform="translate(-1 -6)" fill="#fff"/>
</svg>
