<svg width="30" height="30" viewBox="0 0 30 30" fill="none" xmlns="http://www.w3.org/2000/svg">
<circle cx="15" cy="15" r="15" fill="#666666"/>
<path d="M12.0497 8.32103C11.304 8.35276 10.7964 8.47175 10.3522 8.64626C9.9 8.82871 9.51131 9.06669 9.12262 9.45538C8.73393 9.84407 8.49595 10.2328 8.32144 10.6928C8.14692 11.1371 8.03587 11.6447 7.99621 12.3904C7.96448 13.136 7.95654 13.374 7.95654 15.2699C7.96448 17.1657 7.97241 17.4037 8.00414 18.1494C8.03587 18.895 8.15485 19.4027 8.32937 19.839C8.51182 20.2991 8.74979 20.6878 9.13848 21.0765C9.52717 21.4651 9.91587 21.7031 10.3759 21.8776C10.8202 22.0522 11.3278 22.1632 12.0735 22.2029C12.8192 22.2346 13.0571 22.2425 14.953 22.2425C16.8489 22.2346 17.0868 22.2346 17.8325 22.1949C18.5781 22.1632 19.0858 22.0442 19.53 21.8697C19.9901 21.6873 20.3788 21.4493 20.7675 21.0606C21.1562 20.6719 21.3942 20.2832 21.5687 19.8231C21.7432 19.3789 21.8542 18.8712 21.8939 18.1256C21.9256 17.3799 21.9336 17.1419 21.9336 15.2461C21.9256 13.3502 21.9256 13.1122 21.886 12.3666C21.8542 11.6209 21.7353 11.1133 21.5607 10.669C21.3783 10.209 21.1403 9.82027 20.7516 9.43158C20.3629 9.04289 19.9742 8.80491 19.5142 8.6304C19.0699 8.45588 18.5623 8.34483 17.8166 8.30517C17.063 8.28137 16.8251 8.27344 14.9292 8.27344C13.0333 8.28137 12.7954 8.2893 12.0497 8.32103ZM12.129 20.9416C11.4468 20.9099 11.0819 20.7988 10.836 20.7036C10.5108 20.5767 10.2808 20.426 10.0349 20.1801C9.78895 19.9342 9.63823 19.7041 9.51131 19.3789C9.41612 19.133 9.29713 18.7602 9.2654 18.0859C9.23367 17.3482 9.22574 17.1261 9.21781 15.262C9.21781 13.3978 9.21781 13.1757 9.24954 12.438C9.28127 11.7558 9.39232 11.3909 9.48751 11.145C9.61443 10.8198 9.76515 10.5897 10.0111 10.3438C10.257 10.0979 10.487 9.94719 10.8122 9.82027C11.0581 9.72508 11.431 9.61403 12.1052 9.57436C12.8429 9.54263 13.0651 9.5347 14.9213 9.52677C16.7854 9.52677 17.0075 9.52677 17.7452 9.5585C18.4274 9.59023 18.7923 9.70128 19.0382 9.79647C19.3634 9.92339 19.6014 10.0741 19.8394 10.32C20.0853 10.5659 20.236 10.796 20.3629 11.1212C20.4581 11.3671 20.5692 11.7399 20.6088 12.4142C20.6406 13.1519 20.6485 13.374 20.6564 15.2302C20.6644 17.0944 20.6564 17.3165 20.6247 18.0542C20.593 18.7364 20.4819 19.1013 20.3867 19.3551C20.2598 19.6803 20.1091 19.9104 19.8632 20.1563C19.6173 20.4022 19.3872 20.5529 19.062 20.6798C18.8161 20.775 18.4433 20.8861 17.769 20.9257C17.0313 20.9575 16.8092 20.9654 14.9451 20.9733C13.0889 20.9813 12.8667 20.9733 12.129 20.9416ZM17.8245 11.5258C17.8245 11.9858 18.2053 12.3587 18.6654 12.3587C19.1255 12.3587 19.5062 11.9779 19.4983 11.5178C19.4983 11.0577 19.1175 10.6849 18.6575 10.6849C18.1974 10.6849 17.8245 11.0657 17.8245 11.5258ZM11.3596 15.262C11.3596 17.2451 12.9699 18.8395 14.953 18.8395C16.9282 18.8316 18.5305 17.2292 18.5305 15.2461C18.5226 13.2709 16.9202 11.6606 14.9371 11.6685C12.954 11.6765 11.3516 13.2868 11.3596 15.262ZM12.6129 15.262C12.6129 13.9769 13.6521 12.9377 14.9371 12.9298C16.2222 12.9298 17.2693 13.969 17.2693 15.254C17.2693 16.5391 16.2301 17.5862 14.9451 17.5862C13.66 17.5862 12.6208 16.547 12.6129 15.262Z" fill="white"/>
</svg>
