<svg width="251" height="38" viewBox="0 0 251 38" fill="none" xmlns="http://www.w3.org/2000/svg">
<path d="M23.6374 10.3532C23.6907 9.55254 23.4469 8.82113 23.0964 8.12821C22.845 7.62008 22.4869 7.18123 22.0527 6.81937C21.7479 6.5653 21.3975 6.36513 21.0394 6.18805C20.5442 5.94938 20.0185 5.87239 19.4775 5.82619C18.8985 5.7723 18.3271 5.84929 17.7862 6.03407C17.3595 6.17265 16.9557 6.37283 16.5977 6.66539C16.392 6.83477 16.1863 7.01185 15.9958 7.19663C15.8891 7.30441 15.7825 7.4199 15.691 7.54308C15.4396 7.89724 15.2111 8.2745 15.0206 8.66715C14.7844 9.15219 14.693 9.66803 14.5482 10.1762C14.5178 10.2839 14.472 10.384 14.4263 10.4764C14.2587 10.8152 13.9463 10.7228 13.7559 10.538C13.7102 10.4918 13.6645 10.4379 13.6264 10.3917C13.4664 10.1762 13.253 10.1608 13.0169 10.2301C12.834 10.2839 12.6588 10.3455 12.4836 10.4148C12.1102 10.5688 11.9274 10.4533 11.7369 10.1839C11.6607 10.0684 11.5845 9.95289 11.4931 9.8451C11.3255 9.65263 11.0588 9.55254 10.7846 9.69882C10.6246 9.78351 10.4265 9.81431 10.2436 9.8451C9.96175 9.8913 9.66462 9.9144 9.38273 9.96059C9.16941 9.99139 8.9637 9.96059 8.77323 9.8605C8.43039 9.68342 8.42277 9.26767 8.73514 9.0444C9.13893 8.75954 9.58082 8.55936 10.0075 8.32839C10.5027 8.06662 10.9674 7.77406 11.295 7.30441C11.3941 7.16583 11.4626 7.01185 11.5388 6.86557C11.6455 6.66539 11.7369 6.45752 11.8512 6.26504C12.034 5.97248 12.2245 5.68761 12.4226 5.41045C12.6588 5.07939 12.9483 4.78682 13.2607 4.51735C13.6035 4.21709 13.9921 3.96302 14.3654 3.70125C14.8758 3.3471 15.4472 3.10843 16.011 2.85436C16.3234 2.71578 16.6434 2.60029 16.9634 2.4771C17.3367 2.33082 17.5881 2.06135 17.7557 1.6995C17.8319 1.53782 17.9462 1.38384 18.03 1.22986C18.1824 0.944991 18.3804 0.690922 18.5709 0.436853C18.6928 0.275173 18.8376 0.13659 19.0128 0.0595993C19.2871 -0.0558867 19.4928 -0.0173914 19.5613 0.29827C19.6375 0.652427 19.729 0.998884 19.7671 1.35304C19.8128 1.7303 20.0337 1.94587 20.3232 2.11525C20.4299 2.17684 20.5518 2.21534 20.6661 2.24613C20.9937 2.33852 21.3213 2.42321 21.6413 2.55409C22.0755 2.73887 22.5098 2.90825 22.9288 3.13922C23.5078 3.45488 24.0488 3.81674 24.5668 4.22479C25.0164 4.57895 25.4201 4.9793 25.7935 5.41045C26.2811 5.98018 26.6925 6.6115 26.9972 7.31211C27.302 8.00503 27.5001 8.72104 27.5839 9.46785C27.6296 9.9144 27.6524 10.3609 27.6296 10.8075C27.5991 11.3772 27.5001 11.9392 27.3553 12.4936C27.2182 13.0017 27.0125 13.4791 26.7991 13.9487C26.6163 14.3414 26.3649 14.7109 26.1211 15.0728C25.8696 15.4346 25.603 15.7811 25.3211 16.1121C25.1002 16.3739 24.8487 16.6049 24.6049 16.8435C24.3688 17.0745 24.1326 17.3055 23.8812 17.5057C23.5383 17.7828 23.165 18.0292 22.8222 18.3064C22.6469 18.445 22.4793 18.5989 22.3346 18.776C22.1289 19.0224 22.1289 19.3149 22.2584 19.5998C22.4793 20.108 22.7536 20.5853 23.066 21.0318C23.2945 21.3552 23.5612 21.6632 23.8431 21.948C24.2012 22.3176 24.6049 22.6255 25.0468 22.8873C25.6106 23.2261 26.2201 23.4031 26.8601 23.534C27.5305 23.6649 28.1705 23.5648 28.8105 23.3878C29.3209 23.2492 29.7704 22.9951 30.1742 22.6717C30.7532 22.2175 31.2256 21.6632 31.5608 21.001C31.7361 20.6546 31.8808 20.3004 31.9875 19.9232C32.117 19.4689 32.1627 19.007 32.1627 18.5296C32.1627 18.0677 32.0865 17.6289 31.9799 17.1823C31.8503 16.6588 31.5989 16.1968 31.3018 15.7657C31.0885 15.4577 30.8218 15.1806 30.5399 14.9265C30.2809 14.6878 29.9761 14.5184 29.679 14.3337C29.4962 14.2182 29.2828 14.1489 29.0771 14.0796C28.9019 14.018 28.7191 13.9641 28.5286 13.9256C28.3381 13.8871 28.2315 13.7716 28.1934 13.5945C28.1553 13.4252 28.2238 13.2943 28.3534 13.1865C28.5743 13.0171 28.5819 12.7938 28.5057 12.5552C28.4905 12.5167 28.4676 12.4782 28.46 12.432C28.4295 12.3242 28.3991 12.2164 28.3838 12.1086C28.3534 11.8546 28.3838 11.6236 28.5895 11.4234C28.6962 11.3156 28.7648 11.1539 28.8333 11.0077C28.9171 10.8229 28.9324 10.6227 28.8714 10.4302C28.8638 10.3917 28.8486 10.3609 28.841 10.3224C28.7724 10.0761 28.681 9.8451 28.6352 9.58334C28.5819 9.23688 28.4981 8.89812 28.5133 8.54396C28.5133 8.48237 28.4905 8.41308 28.4905 8.35149C28.4829 8.2514 28.4829 8.15901 28.5819 8.09742C28.6733 8.04352 28.78 8.05122 28.879 8.15131C29.0162 8.2822 29.1609 8.41308 29.2676 8.56706C29.5266 8.92892 29.7628 9.30617 30.0142 9.68342C30.0828 9.78351 30.1666 9.8836 30.2428 9.97599C30.2657 10.0068 30.2961 10.0222 30.319 10.053C30.578 10.4687 30.9894 10.692 31.3704 10.9538C31.7894 11.2463 32.2008 11.5466 32.6122 11.8469C33.0846 12.1933 33.5265 12.586 33.9303 13.0171C34.4407 13.5638 34.8826 14.1566 35.2178 14.8341C35.4845 15.373 35.7283 15.9197 35.9264 16.4894C35.9873 16.6742 36.0787 16.8512 36.1549 17.036C36.2997 17.3671 36.5511 17.5673 36.8635 17.7212C37.1454 17.8521 37.4196 17.9984 37.7015 18.1447C37.7777 18.1832 37.8463 18.2448 37.9072 18.3064C37.9301 18.3295 37.9606 18.3603 37.9682 18.3911C38.0672 18.699 37.9301 18.9531 37.6253 19.0455C37.3511 19.1225 37.0844 19.2149 36.8025 19.2688C36.5054 19.3303 36.3225 19.5228 36.2159 19.7769C36.0559 20.1695 35.934 20.5776 35.7968 20.9779C35.7054 21.2397 35.5911 21.4938 35.4997 21.7555C35.3473 22.2021 35.1112 22.6024 34.8826 23.0105C34.6312 23.457 34.3264 23.8728 33.9988 24.2654C33.275 25.1277 32.4065 25.8053 31.4161 26.3211C31.2408 26.4135 31.058 26.4828 30.8752 26.5521C30.6085 26.6521 30.3495 26.7599 30.0752 26.8369C29.5419 26.9832 28.9933 27.0602 28.4448 27.1064C28.201 27.1218 27.9496 27.1372 27.7058 27.1372C27.1496 27.1372 26.6087 27.0679 26.0601 26.9678C25.344 26.8446 24.6735 26.5906 24.0259 26.2672C23.6602 26.0824 23.2869 25.8822 22.9441 25.659C22.6545 25.4665 22.3955 25.2278 22.1289 25.0046C21.8698 24.7813 21.6032 24.5657 21.3746 24.3193C21.0775 24.0037 20.8108 23.6649 20.5442 23.3262C20.3842 23.126 20.2546 22.9027 20.0947 22.7102C19.889 22.4562 19.668 22.2252 19.3328 22.1559C19.1195 22.1174 18.929 22.1559 18.7538 22.2637C18.6395 22.333 18.5328 22.4023 18.4262 22.4793C17.87 22.8796 17.3138 23.28 16.8262 23.765C16.3082 24.2731 15.8663 24.8506 15.5768 25.5281C15.2872 26.2056 15.1196 26.9139 15.112 27.6607C15.1044 28.1073 15.1196 28.5384 15.2415 28.9696C15.3558 29.3699 15.5387 29.7472 15.7367 30.1167C15.9044 30.4324 16.1405 30.6942 16.3767 30.9482C16.8034 31.4102 17.3214 31.7566 17.9081 31.9722C18.6928 32.2648 19.5156 32.3803 20.3537 32.2109C20.8261 32.1185 21.2679 31.9414 21.6794 31.6796C22.1365 31.3871 22.5326 31.0329 22.8907 30.6249C23.165 30.3092 23.4012 29.9627 23.6069 29.6009C23.8659 29.1466 24.0869 28.6616 24.2164 28.1458C24.2469 28.0149 24.285 27.8917 24.3307 27.7685C24.4297 27.4836 24.7421 27.4221 24.9325 27.653C25.0621 27.807 25.184 27.9764 25.2982 28.1458C25.4811 28.4075 25.6868 28.4691 25.9763 28.3151C26.1287 28.2382 26.2811 28.1612 26.4639 28.1612C26.662 28.1535 26.8144 28.2228 26.9515 28.3536C27.0734 28.4691 27.1877 28.5923 27.302 28.7155C27.4163 28.8464 27.5458 28.8849 27.7134 28.8618C28.0867 28.8156 28.4143 28.6231 28.7648 28.5076C29.0009 28.4306 29.2295 28.3382 29.4885 28.3536C29.5266 28.3536 29.5647 28.3536 29.5952 28.3613C29.8009 28.4075 29.8619 28.5615 29.7247 28.7155C29.58 28.8772 29.4124 29.0158 29.2447 29.162C28.9781 29.393 28.7038 29.624 28.4372 29.855C28.361 29.9243 28.2772 29.9781 28.2086 30.0551C28.0943 30.1706 27.98 30.3015 27.8658 30.4247C27.6143 30.6942 27.4086 31.0021 27.2182 31.3332C27.0429 31.6334 26.8296 31.9183 26.6239 32.2032C26.4106 32.4957 26.1973 32.7806 25.9763 33.0578C25.5801 33.5351 25.1154 33.9509 24.6202 34.3281C24.2011 34.6438 23.7364 34.8901 23.2793 35.1288C23.1879 35.175 23.0888 35.2058 22.9974 35.2366C22.5403 35.3906 22.0755 35.5369 21.6184 35.7062C21.2451 35.8448 20.9403 36.0604 20.7956 36.4608C20.6508 36.8534 20.4299 37.2076 20.1937 37.554C20.0947 37.708 19.9347 37.8312 19.7747 37.939C19.5994 38.0622 19.3861 37.9929 19.3175 37.785C19.2566 37.6079 19.2185 37.4154 19.1956 37.2307C19.1728 36.9689 19.1271 36.7225 19.0052 36.4916C18.8909 36.2683 18.7081 36.1143 18.51 35.9757C18.2281 35.7832 17.9005 35.7062 17.5729 35.6447C17.2605 35.5908 16.9557 35.5061 16.6586 35.3675C16.4148 35.252 16.1558 35.1673 15.912 35.0518C15.6529 34.9209 15.3939 34.7824 15.1501 34.6284C14.5939 34.2896 14.1063 33.8662 13.6264 33.4196C13.4283 33.2348 13.2607 33.0039 13.0854 32.796C12.9178 32.5958 12.7502 32.3956 12.6055 32.1801C12.354 31.8028 12.1331 31.4102 11.9274 31.0021C11.7217 30.5864 11.5769 30.1552 11.4474 29.7087C11.3788 29.4546 11.2874 29.2005 11.2417 28.9465C11.1884 28.6616 11.1579 28.369 11.1427 28.0765C11.1198 27.7146 11.0969 27.3528 11.1122 26.9986C11.1427 26.4597 11.1503 25.913 11.3331 25.3895C11.4779 24.9815 11.5693 24.558 11.7826 24.1731C12.0112 23.7419 12.255 23.3185 12.5597 22.9258C13.055 22.2791 13.634 21.7171 14.2435 21.1781C14.4797 20.9702 14.7311 20.7778 14.9596 20.5699C15.3177 20.2465 15.6758 19.9232 16.011 19.5844C16.1786 19.415 16.2853 19.2072 16.2624 18.9531C16.2548 18.8838 16.2548 18.8222 16.2624 18.7529C16.3082 18.4065 16.1482 18.137 15.9425 17.8906C15.6987 17.5904 15.432 17.3055 15.2034 16.9975C14.8377 16.4971 14.3959 16.0736 13.9387 15.681C13.6111 15.4038 13.253 15.1729 12.8645 14.9727C12.1712 14.6185 11.4322 14.5338 10.6779 14.58C10.1598 14.6108 9.66462 14.734 9.19226 14.965C8.64371 15.2267 8.17135 15.5732 7.76756 16.0198C7.38663 16.4432 7.0895 16.9282 6.88379 17.4749C6.74665 17.8598 6.60952 18.2371 6.57142 18.6374C6.52571 19.0147 6.50285 19.3919 6.52571 19.7769C6.55618 20.1695 6.57142 20.5699 6.66285 20.9548C6.8457 21.7325 7.14283 22.4408 7.72947 23.0105C7.92755 23.203 8.1485 23.3493 8.37706 23.4955C8.81894 23.7804 9.32178 23.8959 9.817 24.0345C9.85509 24.0422 9.88557 24.0499 9.92366 24.0653C10.2665 24.1577 10.3503 24.4194 10.1294 24.6966C9.87795 25.0122 9.87033 25.1508 10.0608 25.5127C10.2436 25.8514 10.2741 26.1902 10.0837 26.5444C10.0151 26.6675 9.95413 26.7907 9.9008 26.9216C9.77129 27.2296 9.83224 27.5221 9.94652 27.8147C10.0075 27.9687 10.0379 28.1381 10.076 28.2997C10.0989 28.3844 10.0989 28.4768 10.137 28.5538C10.297 28.9234 10.297 29.3083 10.3046 29.701C10.3046 29.7626 10.2741 29.8704 10.236 29.8858C10.1598 29.9089 10.0532 29.9089 9.99223 29.8627C9.86271 29.7626 9.73319 29.6394 9.64939 29.5008C9.35987 29.0312 9.03227 28.5923 8.65895 28.1997C8.39992 27.9225 8.10278 27.6838 7.81327 27.4452C7.48567 27.1757 7.14283 26.9293 6.81522 26.6675C6.45714 26.3827 6.09906 26.0901 5.76384 25.7822C5.45909 25.505 5.1772 25.197 4.8953 24.8891C4.43056 24.3886 4.06486 23.8189 3.75249 23.2107C3.64583 23.0105 3.54679 22.8026 3.44775 22.6024C3.3487 22.4023 3.27251 22.1867 3.15823 21.9865C2.99824 21.694 2.8992 21.3783 2.78492 21.0703C2.70873 20.8625 2.6173 20.6623 2.50302 20.4698C2.45731 20.3851 2.36589 20.3158 2.27446 20.2773C1.89353 20.0849 1.48973 19.9232 1.11642 19.723C0.750716 19.5305 0.385018 19.3303 0.156457 18.9531C0.0574131 18.7837 -0.0187747 18.6143 0.00408145 18.4142C0.0117002 18.2987 0.00408145 18.1755 0.00408145 18.06C0.0117002 17.9368 0.0574129 17.8829 0.179312 17.8829C0.270737 17.8829 0.377399 17.8752 0.461205 17.9137C0.97166 18.137 1.51259 18.1293 2.0459 18.1139C2.25161 18.1062 2.41922 17.9984 2.55635 17.8521C2.7392 17.652 2.83825 17.4133 2.91443 17.1592C2.99062 16.8974 3.06681 16.6357 3.18109 16.3893C3.39441 15.9043 3.63059 15.4346 3.94296 15.0112C4.14105 14.7417 4.3239 14.4568 4.54484 14.2105C4.76578 13.9487 5.03244 13.7331 5.261 13.4791C5.47433 13.2404 5.71812 13.0556 5.97716 12.8708C6.21334 12.7015 6.44952 12.5321 6.69332 12.3704C7.11997 12.0932 7.59233 11.9008 8.06469 11.7006C8.4761 11.5312 8.91037 11.4465 9.34464 11.3618C9.64177 11.3002 9.94652 11.2463 10.2436 11.2232C10.8303 11.1693 11.4169 11.1616 12.0036 11.2617C12.5826 11.3618 13.1616 11.4465 13.7178 11.6544C14.3349 11.8854 14.9368 12.1394 15.4777 12.509C15.8434 12.763 16.2167 13.0017 16.5596 13.2789C16.8491 13.5099 17.1081 13.7793 17.3672 14.0411C17.7252 14.4029 18.0528 14.7956 18.35 15.219C18.4947 15.4269 18.6471 15.6348 18.7995 15.835C19.1499 16.3046 19.8432 16.3508 20.247 15.912C20.5289 15.604 20.8565 15.3499 21.1537 15.0574C21.367 14.8495 21.5727 14.6339 21.7708 14.4106C21.9993 14.1643 22.2203 13.9102 22.426 13.6484C22.6088 13.4175 22.7612 13.1711 22.9212 12.9324C23.005 12.8015 23.0964 12.6784 23.165 12.5398C23.4698 11.8315 23.6755 11.1154 23.6374 10.3532Z" fill="white"/>
<path d="M104.287 9.2196C104.054 9.12771 103.822 8.96063 103.581 8.95227C102.019 8.88544 100.457 8.83531 98.9704 9.50364C97.9321 9.97147 96.8273 10.1302 95.7058 10.0884C93.6956 10.0132 92.4246 7.71587 93.4298 5.96151C94.1026 4.78358 95.1244 4.16538 96.495 4.14867C98.3724 4.13196 100.258 4.24057 102.119 4.03172C105.375 3.66414 108.623 3.98159 111.871 3.87299C112.893 3.83957 113.915 3.64743 114.928 3.65578C116.257 3.66414 117.594 3.74768 118.924 3.8897C120.734 4.08184 122.512 4.44942 124.232 5.14281C125.328 5.58558 125.918 6.69667 124.755 7.88295C123.658 8.98569 122.371 9.45352 120.867 9.24466C119.729 9.08594 118.6 8.78519 117.462 8.59305C116.282 8.4009 115.086 8.25888 113.898 8.11686C113.682 8.0918 113.399 8.07509 113.25 8.19205C113.026 8.35913 112.793 8.62646 112.752 8.87709C112.727 9.02746 113.042 9.3282 113.258 9.38668C113.591 9.48693 113.964 9.42845 114.322 9.46187C114.986 9.5287 115.659 9.54541 116.299 9.70414C117.561 10.0132 118.093 10.6816 118.217 11.9597C118.267 12.4526 118.292 12.9455 118.309 13.4384C118.375 16.8469 118.442 20.2553 118.492 23.6638C118.525 25.6354 117.786 27.4482 117.138 29.2443C116.606 30.7147 114.778 31.3412 113.591 30.4473C111.937 29.1942 110.152 29.4699 108.341 29.6036C107.85 29.637 107.369 29.7957 106.887 29.779C105.923 29.7456 105.034 29.9628 104.162 30.3387C103.631 30.5643 103.074 30.7481 102.517 30.9068C101.13 31.3078 100.408 30.9987 99.8427 29.662C99.1532 28.033 98.904 26.2953 98.9455 24.5326C98.9954 22.4274 99.1449 20.3305 99.1781 18.2253C99.1947 17.156 99.0867 16.0783 98.9788 15.0173C98.796 13.1627 100.042 11.1327 101.811 10.5145C102.318 10.339 102.833 10.2137 103.34 10.0383C103.689 9.91299 104.021 9.73755 104.362 9.58718C104.32 9.46187 104.303 9.33656 104.287 9.2196ZM108.797 19.4534C109.636 19.9295 110.55 20.3055 111.273 20.8986C112.477 21.8927 112.129 22.8117 111.04 23.5051C109.221 24.6579 107.219 24.4825 105.226 23.998C105.184 23.9896 105.142 23.9646 105.109 23.9395C104.536 23.455 103.797 23.0289 103.788 22.1935C103.78 21.3497 104.387 20.8401 105.109 20.4809C105.35 20.3556 105.574 20.1885 105.807 20.0381C105.483 19.9045 105.226 19.9546 104.976 19.9713C104.661 19.988 104.353 19.963 104.038 19.9964C103.19 20.0716 102.725 20.5895 102.8 21.4166C102.883 22.3021 103.008 23.1876 103.174 24.0648C103.406 25.3263 103.481 25.4098 104.744 25.368C106.256 25.3263 107.767 25.1759 109.279 25.1174C110.035 25.0924 110.791 25.1843 111.555 25.1926C112.627 25.201 112.901 25.1091 113.1 24.1066C113.333 22.937 113.333 21.7173 113.416 20.5227C113.466 19.7792 113.034 19.4617 112.345 19.4534C111.132 19.445 109.944 19.4534 108.797 19.4534ZM113.449 14.3239C113.258 14.1819 112.951 13.7726 112.627 13.7642C112.162 13.7475 111.854 14.1569 111.879 14.6832C111.904 15.1844 112.137 15.552 112.652 15.6188C113.051 15.669 113.483 15.0758 113.449 14.3239ZM104.187 14.7584C103.631 14.6665 103.107 14.5244 103.049 15.2513C103.033 15.4601 103.29 15.8695 103.464 15.8862C104.22 15.9948 104.312 15.4935 104.187 14.7584ZM108.515 14.3239C108.432 14.2404 108.241 13.8728 108 13.8394C107.51 13.7726 107.435 14.2321 107.502 14.5829C107.56 14.8837 107.743 15.3682 107.934 15.3933C108.474 15.4852 108.532 15.0257 108.515 14.3239ZM109.171 8.86873C108.739 8.57634 108.424 8.24217 108.307 8.30065C108.008 8.45938 107.792 8.79354 107.543 9.05252C107.767 9.21125 108.017 9.512 108.216 9.48693C108.49 9.45352 108.731 9.16948 109.171 8.86873Z" fill="white"/>
<path d="M227.37 22.4275C226.589 22.3189 225.991 22.2353 225.227 22.1267C225.152 23.2545 225.061 24.2654 225.036 25.2762C225.019 26.3539 225.094 27.4316 225.086 28.5092C225.077 29.0439 225.036 29.5869 224.903 30.1049C224.645 31.0739 224.189 31.4081 223.3 31.4081C222.577 31.4081 221.813 30.8818 221.605 30.1383C221.464 29.6287 221.414 29.0773 221.373 28.5427C221.265 27.206 221.19 25.861 221.073 24.5243C221.049 24.2821 220.907 24.0482 220.791 23.7307C219.861 24.2737 219.412 25.1008 218.972 25.9028C218.282 27.1642 217.269 28.0748 216.106 28.8518C215.923 28.9771 215.724 29.1358 215.516 29.1525C215.184 29.1859 214.719 29.236 214.528 29.0523C214.337 28.8685 214.262 28.3422 214.386 28.0832C214.843 27.1141 215.3 26.12 215.948 25.2846C217.585 23.1877 218.914 20.907 220.185 18.5929C220.309 18.359 220.417 18.1084 220.492 17.8494C220.534 17.6907 220.5 17.5069 220.5 17.2145C219.819 17.2145 219.171 17.2145 218.532 17.2145C217.958 17.2145 217.369 17.2646 216.812 17.1811C216.089 17.0641 215.367 16.7968 215.242 15.9447C215.101 14.984 215.192 14.0316 216.073 13.3967C217.119 12.6448 218.299 12.2773 219.578 12.2605C220.293 12.2522 221.015 12.294 221.721 12.2522C222.693 12.1937 223.665 12.0851 224.637 11.9932C225.75 11.8846 226.855 11.7593 227.935 12.2271C228.874 12.6365 229.181 13.238 228.683 14.1319C228.292 14.8252 227.752 15.4435 227.221 16.0449C226.456 16.9054 226.481 17.3148 227.412 17.9664C227.777 18.2254 228.101 18.5345 228.475 18.7767C229.272 19.303 229.738 20.0215 229.746 21.024C231.175 21.3916 232.446 20.9906 233.708 20.5561C234.207 20.3807 234.514 19.3532 234.34 18.8018C234.157 18.217 233.725 17.9831 232.969 18.0666C232.57 18.1084 232.171 18.1836 231.773 18.1919C230.709 18.2087 230.186 17.8077 229.92 16.8219C229.638 15.7609 229.854 14.9673 230.726 14.5496C231.64 14.1152 232.62 13.7726 233.592 13.5137C234.506 13.2714 234.722 13.1628 234.763 12.2104C234.796 11.4502 234.821 10.6649 234.664 9.92976C234.423 8.76854 235.029 8.05844 235.768 7.38176C235.993 7.17291 236.283 7.02253 236.557 6.88051C237.837 6.21219 238.576 6.47952 239.05 7.83288C239.382 8.80195 239.598 9.8128 239.29 10.8487C239.191 11.1912 239.099 11.5504 239.083 11.9013C239.025 12.9289 239.407 13.3048 240.42 13.2463C240.819 13.2213 241.218 13.1461 241.608 13.0709C243.062 12.7869 244.781 14.4243 244.416 16.3206C244.266 17.0976 243.71 17.4902 243.053 17.6489C242.065 17.8828 241.043 17.9747 240.03 18.1084C239.681 18.1585 239.324 18.1752 238.9 18.2087C238.775 18.6013 238.609 18.9689 238.559 19.3532C238.468 20.1969 238.825 20.5896 239.689 20.623C242.14 20.7232 244.59 20.7901 247.041 20.907C248.594 20.9739 249.716 21.826 250.53 23.0791C251.036 23.856 250.903 24.4909 250.256 25.1342C249.043 26.3455 247.556 26.4374 246.019 26.0531C243.801 25.4934 241.567 25.0924 239.274 25.2428C237.903 25.3347 236.549 25.6856 235.187 25.7357C233.301 25.8025 231.465 26.1116 229.663 26.6379C228.923 26.8551 228.184 27.1058 227.553 26.3957C226.822 25.5686 226.481 24.6413 226.872 23.5469C226.98 23.2378 227.129 22.9621 227.37 22.4275Z" fill="white"/>
<path d="M139.492 13.0792C138.935 13.2463 138.57 13.3633 138.188 13.4635C137.083 13.7726 135.928 13.2129 135.554 12.1937C135.114 10.9656 135.588 9.7543 136.751 9.30318C138.213 8.74345 139.741 8.426 141.311 8.43435C141.668 8.43435 142.026 8.45941 142.383 8.40929C143.861 8.21714 143.911 8.10019 143.994 6.60481C144.061 5.41017 144.667 4.37427 145.415 3.49709C146.113 2.68674 147.5 2.90395 148.056 3.88138C148.447 4.56641 148.713 5.35169 148.887 6.12027C149.302 7.92475 149.543 8.15867 151.421 8.05006C152.085 8.00829 152.75 7.93311 153.406 7.84956C154.536 7.69919 155.541 8.07513 156.463 8.63485C157.867 9.48697 157.817 11.116 156.421 11.9681C155.533 12.5111 154.561 12.5446 153.572 12.4861C151.786 12.3775 151.645 12.4276 150.914 14.0566C149.701 16.7467 149.834 16.8636 151.778 18.7099C154.527 21.2996 157.618 23.4216 160.99 25.1091C161.871 25.5519 162.751 25.9946 163.557 26.5544C164.894 27.4817 164.687 29.1608 163.2 29.8626C163.075 29.9211 162.959 29.9962 162.834 30.0213C160.708 30.3972 158.581 30.4223 156.463 29.9712C156.114 29.896 155.715 29.5952 155.516 29.2861C153.879 26.7465 151.537 24.8167 149.726 22.4358C149.435 22.0515 149.045 21.7257 148.671 21.4166C147.724 20.6397 147.234 20.6814 146.436 21.6756C144.916 23.572 143.205 25.2678 141.22 26.663C139.334 27.9913 137.274 28.9269 134.907 28.9854C134.599 28.9938 134.267 28.9854 133.984 28.8852C133.27 28.6345 132.498 28.409 132.439 27.4399C132.381 26.4625 132.473 25.5352 133.453 24.9921C134.4 24.4742 135.372 24.0398 136.501 24.1317C137.623 24.2236 138.611 23.8643 139.492 23.171C140.73 22.2102 141.992 21.2913 143.205 20.3055C143.762 19.8544 144.243 19.2445 144.094 18.4593C143.944 17.6823 143.363 17.2646 142.59 17.1059C142.109 17.0056 141.643 16.872 141.162 16.755C139.658 16.4125 138.728 15.5103 139.376 13.9898C139.467 13.7893 139.442 13.5471 139.492 13.0792ZM144.343 12.8202C144.825 13.9063 145.556 14.1402 146.287 14.2739C146.76 14.3658 147.234 13.8729 147.275 13.3716C147.334 12.7701 146.91 12.5362 146.453 12.5446C145.813 12.5529 145.174 12.7116 144.343 12.8202Z" fill="white"/>
<path d="M76.0687 23.3799C78.5359 23.1794 80.6209 22.9705 82.7059 22.8619C83.5781 22.8118 84.4919 22.8452 85.3475 23.0373C86.6932 23.3464 87.2332 24.491 86.5935 25.7274C85.6465 27.5653 84.251 28.9771 82.3072 29.7707C82.1826 29.8209 82.0331 29.8042 81.9251 29.871C80.3468 30.8818 78.702 30.6563 77.0323 30.1467C75.4623 29.6705 73.8674 29.2528 72.2974 28.7766C70.6859 28.2837 69.0826 27.749 67.4794 27.2478C66.6736 26.9972 65.8679 26.7299 65.0455 26.521C61.8224 25.7023 59.8869 22.7617 60.5515 19.5119C60.8837 17.8996 61.3905 16.3123 61.8224 14.7167C61.8889 14.4577 61.9719 14.1987 62.0218 13.9314C62.1879 13.121 61.8639 12.7368 61.0582 12.7869C60.7924 12.8036 60.5432 12.9122 60.2773 12.9623C58.9815 13.1795 57.9016 12.72 57.2702 11.6841C56.8134 10.9239 56.938 9.52879 57.6274 8.66832C58.6492 7.3985 59.9118 6.56309 61.6147 6.51297C63.6001 6.45449 65.519 6.83042 67.4129 7.31496C69.2488 7.79114 69.8053 9.746 68.5676 11.2247C67.496 12.5028 66.5075 13.8228 65.9592 15.4184C65.6519 16.304 65.3944 17.2062 65.195 18.1251C64.9043 19.4618 66.25 20.9405 67.4794 21.4083C68.6424 21.8511 69.8469 22.2186 71.0597 22.4776C72.829 22.8786 74.6316 23.1292 76.0687 23.3799Z" fill="white"/>
<path d="M199.468 27.1559C198.454 26.8385 197.424 26.5711 196.436 26.1869C194.982 25.6271 193.553 25.0089 192.133 24.374C190.098 23.4718 188.295 22.2604 187.34 20.1385C187.14 19.7041 187.057 19.1945 187.024 18.71C186.883 16.4293 186.891 14.1319 186.6 11.868C186.434 10.5647 186.883 9.59565 187.497 8.61822C188.428 7.13955 189.491 7.056 190.704 8.35089C191.011 8.6767 191.26 9.05263 191.493 9.43692C191.859 10.0301 192.357 10.289 193.055 10.2807C194.218 10.264 195.372 10.3141 196.535 10.3225C197.964 10.3308 199.094 11.1579 199.302 12.3608C199.484 13.3968 199.119 14.1319 198.097 14.441C197.084 14.7501 196.02 14.9005 194.974 15.1261C193.977 15.3349 192.93 15.4184 192 15.786C190.837 16.2455 190.721 17.0893 191.609 17.9915C192.174 18.5596 192.806 19.0859 193.487 19.4952C194.974 20.3891 196.444 21.1995 198.338 21.1159C200.049 21.0407 201.785 21.4334 203.513 21.6506C203.904 21.7007 204.294 21.8594 204.635 22.0599C205.706 22.6614 205.847 23.7308 204.983 24.633C203.496 26.1952 201.711 27.0807 199.468 27.1559Z" fill="white"/>
<path d="M181.209 6.62158C182.338 6.75525 183.302 7.18131 183.859 8.21721C184.415 9.26147 184.008 10.2055 183.41 11.0994C183.36 11.1746 183.302 11.2581 183.227 11.2915C180.935 12.4527 181.225 14.7083 181.142 16.6799C181.009 19.938 181.109 23.1961 181.516 26.4458C181.632 27.3564 181.441 28.3255 181.25 29.2361C181.159 29.6789 180.785 30.1049 180.445 30.4307C179.88 30.9737 179.282 30.9069 178.667 30.3806C178.069 29.8794 177.853 29.2194 177.811 28.4842C177.653 25.4433 177.529 22.4024 177.338 19.3699C177.246 17.9915 177.072 16.6131 176.839 15.2597C176.648 14.1403 176.557 14.1653 175.444 14.04C174.879 13.9732 174.297 13.8562 173.774 13.6307C172.727 13.1795 172.063 12.0935 172.179 11.066C172.312 9.89638 172.703 8.93566 174.032 8.57644C175.66 8.14203 177.246 7.52382 178.866 7.04764C179.63 6.82208 180.436 6.75525 181.209 6.62158Z" fill="white"/>
<path d="M223.591 6.32067C224.812 6.22878 225.85 6.55459 226.806 7.5153C227.628 8.34236 227.445 9.82939 226.465 10.2304C224.538 11.0073 222.527 11.4083 220.467 10.8235C219.52 10.5562 219.072 9.73749 219.138 8.72665C219.205 7.74087 220.052 6.74673 221.032 6.53788C221.506 6.43763 221.996 6.3708 222.486 6.32067C222.843 6.29561 223.2 6.32067 223.591 6.32067Z" fill="white"/>
</svg>
