<svg width="35" height="35" viewBox="0 0 35 35" fill="none" xmlns="http://www.w3.org/2000/svg">
<path d="M4.45979 34.46C3.30774 34.46 2.32186 34.0442 1.50216 33.2126C0.681057 32.3796 0.270508 31.3787 0.270508 30.21C0.270508 29.0412 0.681057 28.0403 1.50216 27.2073C2.32186 26.3758 3.30774 25.96 4.45979 25.96C5.61185 25.96 6.59773 26.3758 7.41743 27.2073C8.23853 28.0403 8.64908 29.0412 8.64908 30.21C8.64908 31.3787 8.23853 32.3796 7.41743 33.2126C6.59773 34.0442 5.61185 34.46 4.45979 34.46ZM4.45979 21.71C3.30774 21.71 2.32186 21.2935 1.50216 20.4605C0.681057 19.6289 0.270508 18.6287 0.270508 17.46C0.270508 16.2912 0.681057 15.2903 1.50216 14.4573C2.32186 13.6258 3.30774 13.21 4.45979 13.21C5.61185 13.21 6.59773 13.6258 7.41743 14.4573C8.23853 15.2903 8.64908 16.2912 8.64908 17.46C8.64908 18.6287 8.23853 19.6289 7.41743 20.4605C6.59773 21.2935 5.61185 21.71 4.45979 21.71ZM4.45979 8.95996C3.30774 8.95996 2.32186 8.54346 1.50216 7.71046C0.681057 6.87888 0.270508 5.87871 0.270508 4.70996C0.270508 3.54121 0.681057 2.54104 1.50216 1.70946C2.32186 0.876461 3.30774 0.459961 4.45979 0.459961C5.61185 0.459961 6.59773 0.876461 7.41743 1.70946C8.23853 2.54104 8.64908 3.54121 8.64908 4.70996C8.64908 5.87871 8.23853 6.87888 7.41743 7.71046C6.59773 8.54346 5.61185 8.95996 4.45979 8.95996ZM17.0277 21.71C15.8756 21.71 14.8897 21.2935 14.07 20.4605C13.2489 19.6289 12.8384 18.6287 12.8384 17.46C12.8384 16.2912 13.2489 15.2903 14.07 14.4573C14.8897 13.6258 15.8756 13.21 17.0277 13.21C18.1797 13.21 19.1663 13.6258 19.9874 14.4573C20.8071 15.2903 21.2169 16.2912 21.2169 17.46L17.0277 21.71ZM17.0277 8.95996C15.8756 8.95996 14.8897 8.54346 14.07 7.71046C13.2489 6.87888 12.8384 5.87871 12.8384 4.70996C12.8384 3.54121 13.2489 2.54104 14.07 1.70946C14.8897 0.876461 15.8756 0.459961 17.0277 0.459961C18.1797 0.459961 19.1663 0.876461 19.9874 1.70946C20.8071 2.54104 21.2169 3.54121 21.2169 4.70996C21.2169 5.87871 20.8071 6.87888 19.9874 7.71046C19.1663 8.54346 18.1797 8.95996 17.0277 8.95996ZM15.9803 34.46C15.701 34.46 15.4567 34.3537 15.2472 34.1412C15.0377 33.9287 14.933 33.6808 14.933 33.3975V30.3693C14.933 30.2985 15.0377 30.0506 15.2472 29.6256L26.0346 18.6818L30.4857 23.1975L19.6983 34.1412C19.6285 34.212 19.3841 34.3183 18.9652 34.46H15.9803ZM29.5955 8.95996C28.4435 8.95996 27.4569 8.54346 26.6358 7.71046C25.8161 6.87888 25.4062 5.87871 25.4062 4.70996C25.4062 3.54121 25.8161 2.54104 26.6358 1.70946C27.4569 0.876461 28.4435 0.459961 29.5955 0.459961C30.7476 0.459961 31.7341 0.876461 32.5552 1.70946C33.3749 2.54104 33.7848 3.54121 33.7848 4.70996C33.7848 5.87871 33.3749 6.87888 32.5552 7.71046C31.7341 8.54346 30.7476 8.95996 29.5955 8.95996ZM31.952 21.71L27.5009 17.1943L29.0195 15.6537C29.4384 15.2287 29.9362 15.0162 30.513 15.0162C31.0883 15.0162 31.568 15.2287 31.952 15.6537L33.4706 17.1943C33.8895 17.5839 34.099 18.0705 34.099 18.6542C34.099 19.2393 33.8895 19.7443 33.4706 20.1693L31.952 21.71Z" fill="white" fill-opacity="0.7"/>
</svg>
