<svg width="40" height="40" viewBox="0 0 40 40" fill="none" xmlns="http://www.w3.org/2000/svg">
<path d="M11.714 0.136286C9.58002 0.227144 8.12713 0.567859 6.85585 1.06758C5.56186 1.59001 4.44949 2.27144 3.33712 3.38444C2.22474 4.49744 1.5437 5.61045 1.04427 6.92788C0.544835 8.19989 0.227015 9.65361 0.113507 11.7888C0.0227015 13.9239 0 14.6053 0 20.0341C0.0227015 25.4628 0.0454029 26.1442 0.136209 28.2794C0.227015 30.4145 0.567537 31.8683 1.06697 33.1175C1.5891 34.435 2.27015 35.548 3.38252 36.661C4.49489 37.774 5.60726 38.4554 6.92395 38.9551C8.19523 39.4549 9.64813 39.7729 11.7821 39.8864C13.916 39.9773 14.597 40 20.0227 40C25.4484 39.9773 26.1294 39.9773 28.2633 39.8637C30.3973 39.7729 31.8502 39.4321 33.1215 38.9324C34.4381 38.41 35.5505 37.7286 36.6629 36.6156C37.7753 35.5026 38.4563 34.3896 38.9557 33.0721C39.4552 31.8001 39.773 30.3464 39.8865 28.2112C39.9773 26.0761 40 25.3947 40 19.9659C39.9773 14.5372 39.9773 13.8558 39.8638 11.7206C39.773 9.58546 39.4325 8.13174 38.933 6.85974C38.4109 5.54231 37.7299 4.4293 36.6175 3.3163C35.5051 2.20329 34.3927 1.52186 33.0761 1.02215C31.8048 0.52243 30.3519 0.204429 28.2179 0.0908574C26.0613 0.0227143 25.3802 0 19.9546 0C14.5289 0.0227144 13.8479 0.0454288 11.714 0.136286ZM11.941 36.2748C9.98865 36.184 8.94438 35.866 8.24064 35.5934C7.30988 35.23 6.65153 34.7984 5.94779 34.0943C5.24404 33.3901 4.81271 32.7314 4.44949 31.8001C4.17707 31.096 3.83655 30.0284 3.74574 28.0977C3.65494 25.9852 3.63224 25.3492 3.60953 20.0114C3.60953 14.6735 3.60953 14.0375 3.70034 11.925C3.79115 9.97161 4.10897 8.92675 4.38138 8.2226C4.74461 7.29131 5.17594 6.63259 5.87968 5.92845C6.58343 5.2243 7.24177 4.79273 8.17253 4.4293C8.87628 4.15673 9.94325 3.83873 11.8729 3.72516C13.9841 3.6343 14.6197 3.61158 19.9319 3.58887C25.2667 3.58887 25.9024 3.58887 28.0136 3.67973C29.9659 3.77058 31.0102 4.08859 31.714 4.36116C32.6447 4.72459 33.3258 5.15616 34.0068 5.86031C34.7106 6.56445 35.1419 7.22317 35.5051 8.15446C35.7775 8.8586 36.0953 9.92618 36.2089 11.8569C36.2997 13.9693 36.3224 14.6053 36.3451 19.9205C36.3678 25.2584 36.3451 25.8944 36.2543 28.0068C36.1635 29.9602 35.8456 31.0051 35.5732 31.732C35.21 32.6633 34.7787 33.322 34.0749 34.0261C33.3712 34.7303 32.7128 35.1618 31.7821 35.5253C31.0783 35.7978 30.0114 36.1158 28.0817 36.2294C25.9705 36.3203 25.3348 36.343 20 36.3657C14.6879 36.3884 14.0522 36.3657 11.941 36.2748ZM28.2406 9.31289C28.2406 10.6303 29.3303 11.6979 30.647 11.6979C31.9637 11.6979 33.0533 10.6076 33.0306 9.29018C33.0306 7.97274 31.941 6.90517 30.6243 6.90517C29.3076 6.90517 28.2406 7.99546 28.2406 9.31289ZM9.73893 20.0114C9.73893 25.6899 14.3473 30.2555 20.0227 30.2555C25.6754 30.2328 30.2611 25.6445 30.2611 19.9659C30.2384 14.3101 25.6527 9.69903 19.9773 9.72175C14.3019 9.74446 9.71623 14.3555 9.73893 20.0114ZM13.3258 20.0114C13.3258 16.3316 16.2997 13.356 19.9773 13.3333C23.6549 13.3333 26.6515 16.3089 26.6515 19.9886C26.6515 23.6684 23.6776 26.6667 20 26.6667C16.3224 26.6667 13.3485 23.6911 13.3258 20.0114Z" fill="white" fill-opacity="0.7"/>
</svg>
