<svg id="footer_ico" xmlns="http://www.w3.org/2000/svg" width="90" height="30" viewBox="0 0 90 30">
  <rect id="사각형_1" data-name="사각형 1" width="30" height="30" fill="none"/>
  <rect id="사각형_2" data-name="사각형 2" width="30" height="30" transform="translate(30)" fill="none"/>
  <rect id="사각형_3" data-name="사각형 3" width="30" height="30" transform="translate(60)" fill="none"/>
  <g id="페이스북" transform="translate(-23.2 -10.5)">
    <g id="그룹_1" data-name="그룹 1" transform="translate(33.2 15.5)">
      <path id="패스_1" data-name="패스 1" d="M36.349,35.5V25.949H33.2V22.644h3.149V19.078A3.673,3.673,0,0,1,39.862,15.5h3.526v2.993H41.762c-.807,0-1.874.651-1.874,1.457v2.707h3.175v3.292H39.888V35.5H36.349Z" transform="translate(-33.2 -15.5)" fill="#fff"/>
    </g>
  </g>
  <g id="인스타" transform="translate(28.7 -4)">
    <g id="그룹_2" data-name="그룹 2" transform="translate(6.3 9)">
      <path id="SVGID_1_" d="M12.157,9.068a7.191,7.191,0,0,0-2.429.465,5.039,5.039,0,0,0-1.759,1.158,4.8,4.8,0,0,0-1.146,1.771,7.481,7.481,0,0,0-.465,2.429C6.311,15.958,6.3,16.3,6.3,19.011s.023,3.053.068,4.12a7.059,7.059,0,0,0,.465,2.418A4.979,4.979,0,0,0,7.991,27.32a4.8,4.8,0,0,0,1.771,1.146,7.481,7.481,0,0,0,2.429.465c1.067.045,1.407.057,4.12.057s3.053-.011,4.12-.068a7.19,7.19,0,0,0,2.429-.465A4.979,4.979,0,0,0,24.631,27.3a4.8,4.8,0,0,0,1.146-1.771,7.481,7.481,0,0,0,.465-2.429c.045-1.067.057-1.407.057-4.12s-.011-3.053-.068-4.12a7.19,7.19,0,0,0-.465-2.429,4.979,4.979,0,0,0-1.158-1.771,4.8,4.8,0,0,0-1.771-1.146,7.481,7.481,0,0,0-2.429-.465C19.331,9.011,18.99,9,16.277,9s-3.053.023-4.12.068m.114,18.059a5.543,5.543,0,0,1-1.85-.341,3.338,3.338,0,0,1-1.9-1.9,5.531,5.531,0,0,1-.352-1.85C8.127,21.985,8.116,21.667,8.1,19s0-2.985.045-4.041a5.543,5.543,0,0,1,.341-1.85,3.338,3.338,0,0,1,1.9-1.9,5.844,5.844,0,0,1,1.85-.352c1.056-.045,1.373-.057,4.03-.068s2.985,0,4.041.045a5.543,5.543,0,0,1,1.85.341,3,3,0,0,1,1.146.749,3.094,3.094,0,0,1,.749,1.146,5.844,5.844,0,0,1,.352,1.85c.045,1.056.057,1.373.068,4.03s0,2.985-.045,4.041a5.7,5.7,0,0,1-.341,1.862,3.338,3.338,0,0,1-1.9,1.9,5.844,5.844,0,0,1-1.85.352c-1.056.045-1.373.057-4.041.068s-2.974,0-4.03-.045m8.15-13.473a1.2,1.2,0,1,0,1.192-1.2,1.2,1.2,0,0,0-1.192,1.2M11.169,19a5.131,5.131,0,1,0,5.119-5.142A5.125,5.125,0,0,0,11.169,19m1.793,0A3.331,3.331,0,1,1,16.3,22.326,3.34,3.34,0,0,1,12.963,19" transform="translate(-6.3 -9)" fill="#fff"/>
    </g>
  </g>
  <g id="네이버_로고" data-name="네이버 로고" transform="translate(-42.23 -85.16)">
    <g id="그룹_5" data-name="그룹 5" transform="translate(108.23 92.16)">
      <path id="패스_7" data-name="패스 7" d="M108.23,92.16h6.263s5.684,8.8,5.856,9.033.19,0,.19,0a15.526,15.526,0,0,1-.548-4.148V92.16h6.238v16.3h-6.238s-5.569-8.329-5.738-8.559-.19,0-.19,0a11.137,11.137,0,0,1,.4,3.264v5.295H108.23Z" transform="translate(-108.23 -92.16)" fill="#fff"/>
    </g>
  </g>
</svg>
