<svg width="161" height="54" viewBox="0 0 161 54" fill="none" xmlns="http://www.w3.org/2000/svg">
<path d="M128 13.1122C128 13.5683 128.066 14.041 128.249 14.4889C129.054 16.4793 131.103 17.7068 133.707 16.6701C134.33 16.4213 151.56 9.4796 151.56 9.4796C151.56 9.4796 144.774 26.6803 144.517 27.3189C143.529 29.7821 144.716 32.0131 146.731 32.7595C147.179 32.9254 147.644 33 148.1 33C149.751 32.9917 151.203 32.0214 151.916 30.0807C152.024 29.7904 160.51 6.49394 160.693 5.93827C160.801 5.60653 161 4.82694 161 4.28787C161.008 3.13507 160.577 2.04862 159.756 1.22756C158.934 0.414795 157.864 -0.00817386 156.728 0.000119655C156.172 0.000119655 155.724 0.0996419 155.044 0.315273C154.637 0.447969 132.762 8.5839 130.895 9.28056C129.029 9.97721 127.992 11.4618 128 13.1122Z" fill="#ED1C24"/>
<path d="M87.4099 26.4199V25.9248H74.2167V29.2994H81.8818C79.8851 35.6196 72.748 39.3325 72.748 39.3325L74.654 41.9976C74.654 41.9976 87.4099 36.7335 87.4099 26.4199Z" fill="#1D1D1D"/>
<path d="M83.2432 48.8208V42.2695H78.5649V49.6623C78.5649 51.9726 80.4049 53.6393 82.9297 53.6393H97.4265V50.2729H84.8851C83.7465 50.2729 83.268 49.8191 83.2432 48.8208Z" fill="#1D1D1D"/>
<path d="M86.8818 32.1375V35.5204H92.4429V43.6475H97.1212V25.5615H92.4429V32.1375H86.8818Z" fill="#1D1D1D"/>
<path d="M127.196 39.1262H131.874V25.4297H127.196V29.6954H122.312V33.0288H127.196V39.1262Z" fill="#1D1D1D"/>
<path d="M22.261 42.0137H4.44727V49.6623C4.44727 51.9725 6.28722 53.6392 8.81199 53.6392H23.2923V43.0533C23.2923 42.4757 22.8303 42.0137 22.261 42.0137ZM18.6223 50.2646H10.7675C9.62883 50.2728 9.14203 49.819 9.12553 48.8207V45.3883H18.6223V50.2646Z" fill="#1D1D1D"/>
<path d="M23.6141 25.9663V25.8096H4.19971V29.1842H18.7213C18.7213 29.407 18.7213 29.6875 18.7213 29.9598C18.7213 33.0951 18.5645 35.1578 18.482 35.9994H0V39.3741H28.4739V35.9994H22.6487C22.921 34.9351 23.6141 31.676 23.6141 25.9663Z" fill="#1D1D1D"/>
<path d="M52.6821 43.7052C56.5682 42.8554 59.4396 39.9428 59.4396 36.4939C59.4396 34.6375 58.6062 32.9378 57.2366 31.6259H62.2036V28.2513H52.6821V25.0664H48.0121V28.2513H38.4905V31.6259H43.4576C42.0879 32.9378 41.2546 34.6292 41.2546 36.4939C41.2546 39.951 44.1259 42.8554 48.0203 43.7052V47.1211H36.1143V50.4957H64.5799V47.1211H52.6821V43.7052ZM46.0648 36.3866C46.0648 34.0846 47.9873 32.2034 50.3471 32.2034C52.7068 32.2034 54.6293 34.0764 54.6293 36.3866C54.6293 38.6969 52.7068 40.5699 50.3471 40.5699C47.9873 40.5699 46.0648 38.6969 46.0648 36.3866Z" fill="#1D1D1D"/>
<path d="M118.252 38.829H122.782C122.592 37.7316 120.934 28.8701 116.618 25.8008H111.396L107.377 38.9362H112.072L114.746 29.4807C117.006 32.121 118.104 37.9709 118.252 38.829Z" fill="#1D1D1D"/>
<path d="M119.184 50.3883C117.996 50.3883 117.782 50.083 117.782 49.0764V48.6556H131.883V41.5598C131.883 40.9493 131.437 40.4707 130.802 40.4707H113.186V43.7216H127.402V45.4625H113.302V49.6622C113.302 52.0962 115.051 53.6391 117.666 53.6391H132.18V50.3883H119.184Z" fill="#1D1D1D"/>
</svg>
