<svg width="147" height="35" viewBox="0 0 147 35" fill="none" xmlns="http://www.w3.org/2000/svg">
<path d="M51.635 5.445V19.335H53.525V5.445H51.635ZM49.775 10.785V12.39H52.085V10.785H49.775ZM48.53 5.685V18.675H50.375V5.685H48.53ZM41.99 14.565V16.2H42.965C44.75 16.2 46.22 16.155 47.9 15.825L47.75 14.205C46.1 14.505 44.675 14.565 42.965 14.565H41.99ZM41.99 7.05V15.345H43.97V8.655H47.12V7.05H41.99ZM62.0888 9.03V10.635H65.3288V9.03H62.0888ZM64.2788 5.46V15.585H66.2738V5.46H64.2788ZM57.1088 17.505V19.095H66.5888V17.505H57.1088ZM57.1088 14.73V18.45H59.1038V14.73H57.1088ZM57.8588 7.275V8.145C57.8588 9.9 56.8688 11.715 54.5738 12.465L55.5788 14.055C58.2488 13.17 59.4788 10.755 59.4788 8.145V7.275H57.8588ZM58.2788 7.275V8.145C58.2788 10.62 59.4638 12.93 62.0438 13.785L63.0188 12.225C60.8288 11.49 59.8838 9.765 59.8838 8.145V7.275H58.2788ZM55.1138 6.39V7.965H62.5838V6.39H55.1138ZM67.7127 11.97V13.56H80.2827V11.97H67.7127ZM73.0077 9.885V12.585H74.9877V9.885H73.0077ZM69.2277 9.255V10.83H78.8577V9.255H69.2277ZM69.2277 6.045V10.26H71.2077V7.605H78.7827V6.045H69.2277ZM73.9527 14.25C70.9527 14.25 69.1227 15.165 69.1227 16.8C69.1227 18.435 70.9527 19.35 73.9527 19.35C76.9527 19.35 78.7677 18.435 78.7677 16.8C78.7677 15.165 76.9527 14.25 73.9527 14.25ZM73.9527 15.75C75.8127 15.75 76.7577 16.095 76.7577 16.8C76.7577 17.52 75.8127 17.835 73.9527 17.835C72.0927 17.835 71.1477 17.52 71.1477 16.8C71.1477 16.095 72.0927 15.75 73.9527 15.75ZM86.0115 12.12V14.055H88.0065V12.12H86.0115ZM80.7465 10.95V12.51H93.3015V10.95H80.7465ZM82.2915 5.85V10.215H91.7115V5.85H82.2915ZM89.7465 7.395V8.685H84.2565V7.395H89.7465ZM82.1865 13.38V14.865H89.8215V15.57H82.2015V18.18H84.1665V16.95H91.7865V13.38H82.1865ZM82.2015 17.745V19.245H92.1465V17.745H82.2015ZM93.8103 16.11V17.73H106.38V16.11H93.8103ZM99.0753 13.14V16.5H101.07V13.14H99.0753ZM95.1303 6.33V13.56H105.015V6.33H103.035V8.46H97.1103V6.33H95.1303ZM97.1103 10.02H103.035V11.97H97.1103V10.02ZM107.384 7.17V8.76H118.844V7.17H107.384ZM106.859 16.335V17.94H119.429V16.335H106.859ZM112.124 14.505V16.965H114.104V14.505H112.124ZM113.099 9.36C110.204 9.36 108.389 10.365 108.389 12.075C108.389 13.785 110.204 14.79 113.099 14.79C115.994 14.79 117.809 13.785 117.809 12.075C117.809 10.365 115.994 9.36 113.099 9.36ZM113.099 10.905C114.839 10.905 115.769 11.28 115.769 12.075C115.769 12.87 114.839 13.23 113.099 13.23C111.359 13.23 110.429 12.87 110.429 12.075C110.429 11.28 111.359 10.905 113.099 10.905ZM112.124 5.595V8.16H114.104V5.595H112.124ZM125.413 8.61V10.215H127.618V8.61H125.413ZM129.838 5.445V15.84H131.728V5.445H129.838ZM127.063 5.67V15.42H128.938V5.67H127.063ZM122.383 17.505V19.095H132.088V17.505H122.383ZM122.383 14.625V18.51H124.378V14.625H122.383ZM122.338 6.375V8.16C122.338 9.81 121.603 11.61 119.713 12.54L120.793 14.055C122.998 13.02 123.898 10.605 123.898 8.16V6.375H122.338ZM122.743 6.375V8.16C122.743 10.53 123.523 12.75 125.578 13.71L126.673 12.195C124.933 11.355 124.273 9.765 124.273 8.16V6.375H122.743ZM142.617 5.43V19.365H144.597V5.43H142.617ZM140.232 10.32V11.94H142.842V10.32H140.232ZM133.572 14.61V16.23H134.682C137.022 16.23 138.822 16.17 140.832 15.855L140.652 14.265C138.687 14.58 136.977 14.61 134.682 14.61H133.572ZM133.572 6.6V15.12H135.552V8.22H140.007V6.6H133.572ZM135.102 10.47V12.03H139.527V10.47H135.102Z" fill="white"/>
<path d="M42 32H43.88C46.09 32 47.29 30.64 47.29 28.31C47.29 25.98 46.09 24.67 43.83 24.67H42V32ZM42.93 31.24V25.43H43.76C45.48 25.43 46.34 26.45 46.34 28.31C46.34 30.17 45.48 31.24 43.76 31.24H42.93ZM49.5548 32.14C50.2248 32.14 50.8348 31.79 51.3448 31.36H51.3848L51.4648 32H52.2148V28.67C52.2148 27.32 51.6548 26.44 50.3248 26.44C49.4548 26.44 48.6948 26.82 48.1948 27.14L48.5548 27.78C48.9748 27.49 49.5448 27.19 50.1848 27.19C51.0748 27.19 51.2948 27.86 51.2948 28.56C48.9848 28.82 47.9648 29.41 47.9648 30.59C47.9648 31.57 48.6448 32.14 49.5548 32.14ZM49.8048 31.4C49.2748 31.4 48.8548 31.15 48.8548 30.53C48.8548 29.83 49.4648 29.38 51.2948 29.17V30.68C50.7748 31.15 50.3348 31.4 49.8048 31.4ZM55.6295 32.14C56.3695 32.14 56.9395 31.89 57.4195 31.58L57.0895 30.97C56.6895 31.24 56.2595 31.41 55.7395 31.41C54.6995 31.41 53.9995 30.66 53.9295 29.51H57.5895C57.6195 29.37 57.6295 29.18 57.6295 28.99C57.6295 27.43 56.8495 26.44 55.4695 26.44C54.2195 26.44 53.0295 27.53 53.0295 29.3C53.0295 31.08 54.1795 32.14 55.6295 32.14ZM53.9195 28.85C54.0395 27.78 54.7195 27.17 55.4795 27.17C56.3395 27.17 56.8295 27.76 56.8295 28.85H53.9195ZM57.9066 34.43C58.9766 34.43 59.3966 33.73 59.3966 32.63V26.57H58.4766V32.62C58.4766 33.28 58.3466 33.7 57.8066 33.7C57.6166 33.7 57.4266 33.64 57.2966 33.6L57.1166 34.29C57.2966 34.36 57.5766 34.43 57.9066 34.43ZM58.9266 25.45C59.2766 25.45 59.5366 25.22 59.5366 24.84C59.5366 24.49 59.2766 24.26 58.9266 24.26C58.5766 24.26 58.3266 24.49 58.3266 24.84C58.3266 25.22 58.5766 25.45 58.9266 25.45ZM62.9205 32.14C63.6605 32.14 64.2305 31.89 64.7105 31.58L64.3805 30.97C63.9805 31.24 63.5505 31.41 63.0305 31.41C61.9905 31.41 61.2905 30.66 61.2205 29.51H64.8805C64.9105 29.37 64.9205 29.18 64.9205 28.99C64.9205 27.43 64.1405 26.44 62.7605 26.44C61.5105 26.44 60.3205 27.53 60.3205 29.3C60.3205 31.08 61.4705 32.14 62.9205 32.14ZM61.2105 28.85C61.3305 27.78 62.0105 27.17 62.7705 27.17C63.6305 27.17 64.1205 27.76 64.1205 28.85H61.2105ZM67.8777 32.14C69.2077 32.14 70.3877 31.09 70.3877 29.3C70.3877 27.48 69.2077 26.44 67.8777 26.44C66.5377 26.44 65.3577 27.48 65.3577 29.3C65.3577 31.09 66.5377 32.14 67.8777 32.14ZM67.8777 31.38C66.9277 31.38 66.2977 30.54 66.2977 29.3C66.2977 28.04 66.9277 27.2 67.8777 27.2C68.8177 27.2 69.4477 28.04 69.4477 29.3C69.4477 30.54 68.8177 31.38 67.8777 31.38ZM71.3321 32H72.2421V28.06C72.7821 27.52 73.1721 27.23 73.7221 27.23C74.4421 27.23 74.7521 27.66 74.7521 28.68V32H75.6721V28.56C75.6721 27.18 75.1521 26.44 74.0121 26.44C73.2621 26.44 72.7021 26.85 72.1921 27.36H72.1621L72.0721 26.57H71.3321V32ZM78.752 32H79.592V27.95C79.592 27.31 79.522 26.43 79.472 25.78H79.512L80.092 27.45L81.482 31.27H82.102L83.492 27.45L84.072 25.78H84.122C84.072 26.43 84.002 27.31 84.002 27.95V32H84.862V24.67H83.742L82.352 28.6C82.182 29.1 82.022 29.61 81.842 30.13H81.802C81.622 29.61 81.452 29.1 81.272 28.6L79.862 24.67H78.752V32ZM88.4772 32.14C89.2172 32.14 89.7872 31.89 90.2672 31.58L89.9372 30.97C89.5372 31.24 89.1072 31.41 88.5872 31.41C87.5472 31.41 86.8472 30.66 86.7772 29.51H90.4372C90.4672 29.37 90.4772 29.18 90.4772 28.99C90.4772 27.43 89.6972 26.44 88.3172 26.44C87.0672 26.44 85.8772 27.53 85.8772 29.3C85.8772 31.08 87.0272 32.14 88.4772 32.14ZM86.7672 28.85C86.8872 27.78 87.5672 27.17 88.3272 27.17C89.1872 27.17 89.6772 27.76 89.6772 28.85H86.7672ZM92.8876 32.14C93.2276 32.14 93.5876 32.04 93.8876 31.93L93.7076 31.25C93.5376 31.32 93.2876 31.4 93.0976 31.4C92.4676 31.4 92.2576 31.01 92.2576 30.35V27.31H93.7276V26.57H92.2576V25.04H91.4876L91.3876 26.57L90.5376 26.63V27.31H91.3476V30.33C91.3476 31.41 91.7276 32.14 92.8876 32.14ZM94.4571 32H95.3671V28.52C95.7271 27.59 96.2871 27.26 96.7371 27.26C96.9571 27.26 97.0771 27.29 97.2671 27.35L97.4371 26.55C97.2571 26.47 97.0971 26.44 96.8571 26.44C96.2471 26.44 95.6871 26.87 95.3171 27.56H95.2871L95.1971 26.57H94.4571V32ZM99.8073 32.14C101.137 32.14 102.317 31.09 102.317 29.3C102.317 27.48 101.137 26.44 99.8073 26.44C98.4673 26.44 97.2873 27.48 97.2873 29.3C97.2873 31.09 98.4673 32.14 99.8073 32.14ZM99.8073 31.38C98.8573 31.38 98.2273 30.54 98.2273 29.3C98.2273 28.04 98.8573 27.2 99.8073 27.2C100.747 27.2 101.377 28.04 101.377 29.3C101.377 30.54 100.747 31.38 99.8073 31.38ZM103.262 34.29H104.172V32.46L104.152 31.51C104.642 31.91 105.152 32.14 105.642 32.14C106.892 32.14 108.002 31.06 108.002 29.21C108.002 27.53 107.252 26.44 105.842 26.44C105.212 26.44 104.612 26.79 104.122 27.2H104.092L104.002 26.57H103.262V34.29ZM105.502 31.37C105.142 31.37 104.662 31.22 104.172 30.81V27.95C104.702 27.46 105.162 27.2 105.622 27.2C106.652 27.2 107.062 28.01 107.062 29.22C107.062 30.56 106.392 31.37 105.502 31.37ZM109.923 32.14C110.173 32.14 110.313 32.1 110.443 32.06L110.323 31.36C110.213 31.38 110.173 31.38 110.133 31.38C109.993 31.38 109.873 31.27 109.873 30.98V24.05H108.963V30.92C108.963 31.7 109.233 32.14 109.923 32.14ZM111.305 32H112.215V26.57H111.305V32ZM111.765 25.45C112.115 25.45 112.375 25.22 112.375 24.84C112.375 24.49 112.115 24.26 111.765 24.26C111.405 24.26 111.155 24.49 111.155 24.84C111.155 25.22 111.405 25.45 111.765 25.45ZM115.259 32.14C115.599 32.14 115.959 32.04 116.259 31.93L116.079 31.25C115.909 31.32 115.659 31.4 115.469 31.4C114.839 31.4 114.629 31.01 114.629 30.35V27.31H116.099V26.57H114.629V25.04H113.859L113.759 26.57L112.909 26.63V27.31H113.719V30.33C113.719 31.41 114.099 32.14 115.259 32.14ZM117.805 32.14C118.475 32.14 119.085 31.79 119.595 31.36H119.635L119.715 32H120.465V28.67C120.465 27.32 119.905 26.44 118.575 26.44C117.705 26.44 116.945 26.82 116.445 27.14L116.805 27.78C117.225 27.49 117.795 27.19 118.435 27.19C119.325 27.19 119.545 27.86 119.545 28.56C117.235 28.82 116.215 29.41 116.215 30.59C116.215 31.57 116.895 32.14 117.805 32.14ZM118.055 31.4C117.525 31.4 117.105 31.15 117.105 30.53C117.105 29.83 117.715 29.38 119.545 29.17V30.68C119.025 31.15 118.585 31.4 118.055 31.4ZM121.69 32H122.6V28.06C123.14 27.52 123.53 27.23 124.08 27.23C124.8 27.23 125.11 27.66 125.11 28.68V32H126.03V28.56C126.03 27.18 125.51 26.44 124.37 26.44C123.62 26.44 123.06 26.85 122.55 27.36H122.52L122.43 26.57H121.69V32ZM131.159 32.14C131.809 32.14 132.439 31.88 132.919 31.45L132.529 30.84C132.189 31.14 131.739 31.38 131.249 31.38C130.249 31.38 129.559 30.54 129.559 29.3C129.559 28.04 130.279 27.2 131.279 27.2C131.699 27.2 132.039 27.39 132.359 27.68L132.819 27.08C132.439 26.73 131.939 26.44 131.229 26.44C129.839 26.44 128.619 27.48 128.619 29.3C128.619 31.09 129.719 32.14 131.159 32.14ZM133.627 32H134.537V26.57H133.627V32ZM134.087 25.45C134.437 25.45 134.697 25.22 134.697 24.84C134.697 24.49 134.437 24.26 134.087 24.26C133.727 24.26 133.477 24.49 133.477 24.84C133.477 25.22 133.727 25.45 134.087 25.45ZM137.581 32.14C137.921 32.14 138.281 32.04 138.581 31.93L138.401 31.25C138.231 31.32 137.981 31.4 137.791 31.4C137.161 31.4 136.951 31.01 136.951 30.35V27.31H138.421V26.57H136.951V25.04H136.181L136.081 26.57L135.231 26.63V27.31H136.041V30.33C136.041 31.41 136.421 32.14 137.581 32.14ZM139.23 34.35C140.32 34.35 140.88 33.53 141.26 32.46L143.31 26.57H142.42L141.44 29.59C141.3 30.08 141.14 30.62 140.99 31.12H140.94C140.76 30.62 140.58 30.07 140.41 29.59L139.3 26.57H138.36L140.54 32.01L140.42 32.42C140.19 33.09 139.8 33.59 139.19 33.59C139.04 33.59 138.88 33.55 138.78 33.51L138.6 34.24C138.77 34.31 138.98 34.35 139.23 34.35Z" fill="white"/>
<path d="M17.3044 17.421L15.7426 0.179199C12.908 1.1631 10.8699 3.85713 10.8699 7.02749C10.8699 7.79275 10.9949 8.52678 11.2135 9.22176C10.0266 8.3706 8.57412 7.87084 7.00454 7.87084C4.55257 7.87084 2.38952 9.08901 1.07764 10.9475L17.3044 17.421Z" fill="#00AE4D"/>
<path d="M16.8515 19.0216L0 15.0703C0.0390442 18.0689 1.95221 20.8488 4.96642 21.8483C5.69264 22.0904 6.43448 22.1997 7.1607 22.2153C5.98157 23.0743 5.05232 24.2925 4.55255 25.784C3.77948 28.111 4.25581 30.5473 5.60674 32.3746L16.8515 19.0216Z" fill="#00AE4D"/>
<path d="M18.2492 19.8271L9.35498 34.6794C12.2286 35.554 15.4537 34.5779 17.3278 32.0166C17.7807 31.3998 18.1087 30.7282 18.3429 30.041C18.8037 31.4232 19.6783 32.6882 20.9511 33.6096C22.9267 35.0543 25.3943 35.3432 27.5496 34.617L18.2492 19.8271Z" fill="#00AE4D"/>
<path d="M19.0225 17.4214L34.9525 10.6355C33.1408 8.23826 29.9548 7.12941 26.9406 8.10551C26.2144 8.33977 25.5506 8.68336 24.9572 9.11284C25.4023 7.72288 25.4335 6.18455 24.9494 4.69307C24.1997 2.36606 22.3725 0.679363 20.2016 0L19.0225 17.4214Z" fill="#00AE4D"/>
<path d="M19.4985 18.8969L30.8838 31.9375C32.6018 29.4778 32.6642 26.0966 30.8057 23.5353C30.3528 22.9184 29.8218 22.3952 29.2362 21.9579C30.6964 21.9501 32.1645 21.4972 33.4373 20.5758C35.4207 19.139 36.4593 16.8822 36.4281 14.6099L19.4985 18.8969Z" fill="#00AE4D"/>
</svg>
