<svg width="100" height="100" viewBox="0 0 100 100" fill="none" xmlns="http://www.w3.org/2000/svg">
<path d="M86.53 28.97H13.02C9.99999 28.97 7.54999 26.52 7.54999 23.5C7.54999 20.48 9.99999 18.03 13.02 18.03H86.53C89.55 18.03 92 20.48 92 23.5C92 26.52 89.55 28.97 86.53 28.97Z" fill="#1D1D1D"/>
<path d="M86.53 55.56H13.02C9.99999 55.56 7.54999 53.11 7.54999 50.09C7.54999 47.07 9.99999 44.62 13.02 44.62H86.53C89.55 44.62 92 47.07 92 50.09C92 53.11 89.55 55.56 86.53 55.56Z" fill="#1D1D1D"/>
<path d="M86.53 82.15H13.02C9.99999 82.15 7.54999 79.7 7.54999 76.68C7.54999 73.66 9.99999 71.21 13.02 71.21H86.53C89.55 71.21 92 73.66 92 76.68C92 79.7 89.55 82.15 86.53 82.15Z" fill="#1D1D1D"/>
</svg>
