<svg xmlns="http://www.w3.org/2000/svg" width="183" height="179" viewBox="0 0 183 179">
  <g id="insta" transform="translate(-183)">
    <rect id="사각형_2" data-name="사각형 2" width="183" height="179" transform="translate(183)" fill="none"/>
    <g id="인스타" transform="translate(238.977 52.15)">
      <g id="그룹_2" data-name="그룹 2" transform="translate(0 0)">
        <path id="SVGID_1_" d="M28.157,9.254a26.833,26.833,0,0,0-9.065,1.737,18.8,18.8,0,0,0-6.566,4.321,17.9,17.9,0,0,0-4.278,6.608,27.918,27.918,0,0,0-1.737,9.065C6.342,34.966,6.3,36.236,6.3,46.36c.042,10.124.085,11.394.254,15.376a26.341,26.341,0,0,0,1.737,9.022,18.579,18.579,0,0,0,4.321,6.608,17.9,17.9,0,0,0,6.608,4.278,27.918,27.918,0,0,0,9.065,1.737c3.982.169,5.252.212,15.376.212,10.124-.042,11.394-.042,15.376-.254A26.833,26.833,0,0,0,68.1,81.6a18.579,18.579,0,0,0,6.608-4.321,17.9,17.9,0,0,0,4.278-6.608,27.918,27.918,0,0,0,1.737-9.065c.169-3.982.212-5.252.212-15.376-.042-10.124-.042-11.394-.254-15.376a26.833,26.833,0,0,0-1.737-9.065,18.579,18.579,0,0,0-4.321-6.608,17.9,17.9,0,0,0-6.608-4.278,27.918,27.918,0,0,0-9.065-1.737C54.927,9.042,53.657,9,43.533,9c-10.124.042-11.394.085-15.376.254m.424,67.392a20.684,20.684,0,0,1-6.9-1.271,11.545,11.545,0,0,1-4.278-2.8A11.545,11.545,0,0,1,14.6,68.3a20.64,20.64,0,0,1-1.313-6.9c-.169-3.939-.212-5.125-.254-15.08,0-9.954,0-11.14.169-15.08a20.684,20.684,0,0,1,1.271-6.9,11.545,11.545,0,0,1,2.8-4.278,11.545,11.545,0,0,1,4.278-2.8,21.808,21.808,0,0,1,6.9-1.313c3.939-.169,5.125-.212,15.037-.254,9.954,0,11.14,0,15.08.169a20.684,20.684,0,0,1,6.9,1.271,11.213,11.213,0,0,1,4.278,2.8,11.545,11.545,0,0,1,2.8,4.278,21.808,21.808,0,0,1,1.313,6.9c.169,3.939.212,5.125.254,15.037.042,9.954,0,11.14-.169,15.08a21.266,21.266,0,0,1-1.271,6.947A12.457,12.457,0,0,1,65.6,75.248a21.808,21.808,0,0,1-6.9,1.313c-3.939.169-5.125.212-15.08.254-9.912.042-11.1,0-15.037-.169M58.994,26.367a4.469,4.469,0,1,0,4.448-4.49,4.483,4.483,0,0,0-4.448,4.49M24.472,46.318a19.146,19.146,0,1,0,19.1-19.188,19.126,19.126,0,0,0-19.1,19.188m6.693,0A12.432,12.432,0,1,1,43.618,58.729,12.465,12.465,0,0,1,31.164,46.318" transform="translate(-6.3 -9)" fill="#fff"/>
      </g>
    </g>
  </g>
</svg>
