<svg xmlns="http://www.w3.org/2000/svg" width="227.018" height="46.149" viewBox="0 0 227.018 46.149">
  <g id="layer1" transform="translate(0 0)">
    <path id="path178" d="M1904.885,3154.7a11.831,11.831,0,0,0-4.834-1.365c-1.365,0-2.238.494-2.238,1.254,0,2.306,7.766,1.657,7.766,6.983,0,2.932-2.462,4.634-5.864,4.634a10.347,10.347,0,0,1-5.506-1.478v-3.29c2.194,1.456,3.537,1.97,5.215,1.97,1.454,0,2.239-.514,2.239-1.41,0-2.507-7.768-1.589-7.768-7.072,0-2.641,2.283-4.387,5.82-4.387a12.484,12.484,0,0,1,5.17,1.188v2.975" transform="translate(-1844.37 -3127.982)" fill="#1d1d1d"/>
    <path id="path180" d="M2012.423,3200.92c-.336,0-.538-.2-.538-.716v-4.7c0-2.261-1.768-3.133-4.364-3.133a8.392,8.392,0,0,0-4.476,1.252v2.641a5.635,5.635,0,0,1,3.8-1.723c1.41,0,1.858.761,1.79,1.723-4.318,1.343-6.132,1.836-6.132,4.3a2.754,2.754,0,0,0,2.888,2.53,5.765,5.765,0,0,0,3.4-1.165c.224.829.739,1.165,1.812,1.165a6.769,6.769,0,0,0,3.044-.941v-1.814C2012.892,3200.876,2012.646,3200.92,2012.423,3200.92Zm-3.784-.536a2.743,2.743,0,0,1-1.79.783,1.075,1.075,0,0,1-1.051-1.1c0-1.03.918-1.478,2.841-2.172v2.485" transform="translate(-1940.141 -3164.872)" fill="#1d1d1d"/>
    <path id="path182" d="M2093.327,3194.064h3.469l2.192,5.685,2.217-5.685h3.446l-4.744,10.52h-1.813l-4.767-10.52" transform="translate(-2020.221 -3166.365)" fill="#1d1d1d"/>
    <path id="path184" d="M2196.016,3198.256h7.407c.158-3.76-2.327-5.885-5.326-5.885a5.206,5.206,0,0,0-5.438,5.393c0,3.222,2.35,5.327,5.977,5.327a7.476,7.476,0,0,0,4.61-1.365v-2.038a6.056,6.056,0,0,1-3.828,1.478C2197.38,3201.166,2196.127,3200.093,2196.016,3198.256Zm2.305-3.962a2.22,2.22,0,0,1,2.239,2.261h-4.477a2.194,2.194,0,0,1,2.239-2.261" transform="translate(-2107.808 -3164.872)" fill="#1d1d1d"/>
    <path id="path186" d="M2345.874,3172.079h-3.76v4.253a1.5,1.5,0,0,0,1.589,1.655,4.521,4.521,0,0,0,2.17-.6v2.35a7.348,7.348,0,0,1-3,.648c-2.147,0-4.006-.984-4.006-3.873v-4.431h-1.477v-.627l4.32-4.835h.4v3.246h3.76v2.216" transform="translate(-2235.428 -3142.163)" fill="#1d1d1d"/>
    <path id="path188" d="M2423.118,3158.711h.045a3.986,3.986,0,0,1,3.268-1.723,3.616,3.616,0,0,1,3.781,3.939v6.58h-3.245v-5.887c0-1.543-.672-2.259-1.678-2.259-.761,0-1.41.469-2.17,1.566v6.58h-3.246v-15.264h3.246v6.468" transform="translate(-2308.157 -3129.489)" fill="#1d1d1d"/>
    <path id="path190" d="M2525.03,3198.256h7.407c.156-3.76-2.328-5.885-5.327-5.885a5.2,5.2,0,0,0-5.438,5.393c0,3.222,2.35,5.327,5.974,5.327a7.473,7.473,0,0,0,4.611-1.365v-2.038a6.05,6.05,0,0,1-3.827,1.478C2526.394,3201.166,2525.141,3200.093,2525.03,3198.256Zm2.3-3.962a2.22,2.22,0,0,1,2.239,2.261H2525.1a2.193,2.193,0,0,1,2.237-2.261" transform="translate(-2397.921 -3164.872)" fill="#1d1d1d"/>
    <path id="path192" d="M2687.912,3164.68a11.851,11.851,0,0,1-6,1.522c-5.93,0-8.885-3.85-8.885-7.79,0-4.073,3.335-7.877,9.176-7.877a10.764,10.764,0,0,1,5.53,1.343v3.4a10.662,10.662,0,0,0-5.26-1.566c-3.246,0-5.529,1.925-5.529,4.634,0,2.729,2.26,4.677,5.44,4.677,1.992,0,3.334-.627,5.527-1.679v3.335" transform="translate(-2531.381 -3127.983)" fill="#1d1d1d"/>
    <path id="path194" d="M2821.265,3158.711h.045a3.988,3.988,0,0,1,3.268-1.723,3.616,3.616,0,0,1,3.782,3.939v6.58h-3.245v-5.887c0-1.543-.672-2.259-1.679-2.259-.76,0-1.409.469-2.171,1.566v6.58h-3.245v-15.264h3.245v6.468" transform="translate(-2659.228 -3129.489)" fill="#1d1d1d"/>
    <path id="path196" d="M2924.735,3204.388h3.245V3194.07h-3.245Z" transform="translate(-2753.326 -3166.369)" fill="#1d1d1d"/>
    <path id="path198" d="M2926.806,3152.324a1.79,1.79,0,1,1-1.79-1.79,1.8,1.8,0,0,1,1.79,1.79" transform="translate(-2751.996 -3127.981)" fill="#1d1d1d"/>
    <path id="path200" d="M2972.251,3167.507h3.246v-15.264h-3.246Z" transform="translate(-2795.223 -3129.489)" fill="#1d1d1d"/>
    <path id="path202" d="M3022.164,3152.241v5.393a6.008,6.008,0,0,0-2.686-.648c-2.955,0-5.013,2.192-5.013,5.348,0,3.088,2.058,5.371,4.834,5.371a4.235,4.235,0,0,0,2.866-1.029v.827h3.245v-15.263Zm0,12.444a2.722,2.722,0,0,1-1.925.85c-1.521,0-2.483-1.254-2.483-3.133,0-2.058.962-3.246,2.594-3.246a3.522,3.522,0,0,1,1.815.6v4.925" transform="translate(-2832.445 -3129.487)" fill="#1d1d1d"/>
    <path id="path204" d="M3129.723,3195.526h.045c.961-2.148,2.038-3.155,3.289-3.155a3.531,3.531,0,0,1,2.15.938l-.9,2.866a3.729,3.729,0,0,0-1.925-.76c-1.185,0-1.946,1.118-2.662,3.021v4.453h-3.245v-10.318h3.245v2.954" transform="translate(-2931.215 -3164.872)" fill="#1d1d1d"/>
    <path id="path206" d="M3205.745,3198.256h7.408c.155-3.76-2.328-5.885-5.328-5.885a5.2,5.2,0,0,0-5.437,5.393c0,3.222,2.35,5.327,5.976,5.327a7.473,7.473,0,0,0,4.61-1.365v-2.038a6.054,6.054,0,0,1-3.827,1.478C3207.109,3201.166,3205.856,3200.093,3205.745,3198.256Zm2.305-3.962a2.219,2.219,0,0,1,2.237,2.261h-4.476a2.194,2.194,0,0,1,2.239-2.261" transform="translate(-2998.149 -3164.872)" fill="#1d1d1d"/>
    <path id="path208" d="M3310.639,3194.046a4.153,4.153,0,0,1,3.356-1.678,3.612,3.612,0,0,1,3.76,3.962v6.557h-3.247v-6.29c0-1.454-.693-2.058-1.61-2.058-.807,0-1.411.425-2.26,1.7v6.647h-3.247V3192.57h3.247v1.476" transform="translate(-3090.738 -3164.869)" fill="#1d1d1d"/>
    <path id="path210" d="M1516.066,2972.378c2.057-2.116,2.971-3.1,2.828-3.676a1.946,1.946,0,0,0-1.176-1.138,3,3,0,0,0-2.186-.257,7.386,7.386,0,0,0-1.153,1.053l-.649.636h0c-.357-.417-.737-.834-1.113-1.21a20.508,20.508,0,0,0-9.986-5.494,6.289,6.289,0,0,0-5.408-2.477,6.09,6.09,0,0,0-4.336,2.521,23,23,0,0,0-10.682,5.782v0a4.752,4.752,0,0,0-2.893.33,1.453,1.453,0,0,0-.9.879c-.066.264.014.689,1,1.981v0a22.668,22.668,0,0,0-4.349,14.366,20.7,20.7,0,0,0,6,13.674,20.433,20.433,0,0,0,4.264,3.269h0a25.242,25.242,0,0,0,23.526.783l.014-.005a1.279,1.279,0,0,0,.616-1.647l-.074-.2c-1-2.729-4.041-11.037-1.534-18.254,1.051-3.019,3.692-6.132,5.955-8.559h0a20.127,20.127,0,0,1,2.4,11.807,18.4,18.4,0,0,1-4.367,10.109h0a.432.432,0,0,0-.119.3.717.717,0,0,0,.022.139l.192.547a.437.437,0,0,0,.408.281.43.43,0,0,0,.318-.138h.014c6.417-7.081,7.826-17.337,3.392-25.4h-.015Zm-27.281,15.6a41.669,41.669,0,0,0-1.376,12.226h0a20.869,20.869,0,0,1-4.056-3.152,20.47,20.47,0,0,1-5.9-12.228,18.973,18.973,0,0,1,2.888-12.358h0c.734.88,1.626,1.9,2.559,2.958a63.478,63.478,0,0,1,6.093,7.6c.7,1.187.362,2.606-.206,4.958Zm22.57-16.773c-4.83,4.233-9.26,6.4-13.154,6.427a15.808,15.808,0,0,1-9.206-3.287,36.137,36.137,0,0,1-5.667-5.17l-.119-.127h0a18.465,18.465,0,0,1,8.506-4.5s0,0,0,0h0s0,0,0,0a9.274,9.274,0,0,0-.451,3.838,8.733,8.733,0,0,0,2.935,5.933,5.854,5.854,0,0,0,8.52-.746,8.718,8.718,0,0,0,1.86-6.352,9.543,9.543,0,0,0-.2-1.3h0a20.611,20.611,0,0,1,5.941,4.157c.352.354.7.729,1.039,1.12h0" transform="translate(-1475.033 -2959.793)" fill="#ed1b2d"/>
  </g>
</svg>
