<svg xmlns="http://www.w3.org/2000/svg" width="29.188" height="30.701" viewBox="0 0 29.188 30.701">
  <path id="path210" d="M1502.33,2968.165c1.369-1.408,1.977-2.06,1.881-2.445a1.293,1.293,0,0,0-.782-.757,2,2,0,0,0-1.454-.171,4.933,4.933,0,0,0-.767.7l-.432.423h0c-.237-.277-.49-.555-.74-.805a13.637,13.637,0,0,0-6.643-3.655,4.184,4.184,0,0,0-3.6-1.648,4.052,4.052,0,0,0-2.885,1.677,15.3,15.3,0,0,0-7.106,3.846v0a3.163,3.163,0,0,0-1.925.22.966.966,0,0,0-.6.584c-.044.176.01.459.665,1.318v0a15.077,15.077,0,0,0-2.893,9.557,13.774,13.774,0,0,0,3.99,9.1,13.593,13.593,0,0,0,2.837,2.174h0a16.793,16.793,0,0,0,15.651.521l.009,0a.852.852,0,0,0,.41-1.1l-.049-.135c-.665-1.815-2.689-7.342-1.021-12.144a18.238,18.238,0,0,1,3.962-5.694h0a13.391,13.391,0,0,1,1.594,7.854,12.238,12.238,0,0,1-2.905,6.725h0a.287.287,0,0,0-.079.2.5.5,0,0,0,.015.093l.128.364a.292.292,0,0,0,.272.187.284.284,0,0,0,.211-.092h.009a14.729,14.729,0,0,0,2.256-16.895h-.01Zm-18.148,10.377a27.717,27.717,0,0,0-.915,8.133h0a13.88,13.88,0,0,1-2.7-2.1,13.619,13.619,0,0,1-3.925-8.134,12.624,12.624,0,0,1,1.921-8.221h0c.488.585,1.081,1.262,1.7,1.968a42.208,42.208,0,0,1,4.054,5.054c.469.789.241,1.734-.137,3.3Zm15.015-11.158c-3.213,2.816-6.16,4.258-8.751,4.275a10.518,10.518,0,0,1-6.124-2.186,24.041,24.041,0,0,1-3.77-3.439l-.079-.084h0a12.282,12.282,0,0,1,5.658-2.992v0h0s0,0,0,0a6.172,6.172,0,0,0-.3,2.553,5.808,5.808,0,0,0,1.952,3.947,3.894,3.894,0,0,0,5.667-.5,5.8,5.8,0,0,0,1.237-4.226,6.383,6.383,0,0,0-.135-.863h0a13.717,13.717,0,0,1,3.953,2.765c.234.235.467.485.691.745h0" transform="translate(-1475.033 -2959.793)" fill="#ed1b2d"/>
</svg>
