<svg width="30" height="30" viewBox="0 0 30 30" fill="none" xmlns="http://www.w3.org/2000/svg">
<circle cx="15" cy="15" r="15" fill="#666666"/>
<path d="M22.6869 11.5617C22.514 10.9474 22.006 10.4628 21.361 10.299C20.1908 10 15.5004 10 15.5004 10C15.5004 10 10.8092 10 9.63985 10.299C8.99484 10.4628 8.486 10.9474 8.31313 11.5617C8 12.6761 8 15.0004 8 15.0004C8 15.0004 8 17.3247 8.31313 18.4391C8.486 19.0541 8.99402 19.5379 9.63985 19.7018C10.81 20 15.5004 20 15.5004 20C15.5004 20 20.1908 20 21.361 19.7018C22.006 19.5372 22.5148 19.0534 22.6869 18.4391C23 17.3247 23 15.0004 23 15.0004C23 15.0004 23 12.6761 22.6869 11.5617ZM14 17.143V12.857L17.897 15.0004L14 17.143Z" fill="white"/>
</svg>
