<svg xmlns="http://www.w3.org/2000/svg" width="284.432" height="274.903" viewBox="0 0 284.432 274.903">
  <g id="그룹_4" data-name="그룹 4" transform="matrix(0.574, -0.819, 0.819, 0.574, -540.951, 1057.218)">
    <g id="그룹_3" data-name="그룹 3" transform="translate(1066.961 -103.8)">
      <path id="패스_13" data-name="패스 13" d="M322.634,238.186c1.68,5.854,7.19,10.647,12.552,11.426l-1.073,2.858c-4.153-.74-8.309-3.642-11.155-7.77-.08,5.239-2,10.118-5.2,13.121l-2.471-1.879c4.066-3.6,6.194-10.858,4.452-16.926l-1.65-5.746,2.891-.831Zm12.4-12.794,9.211,32.089-2.927.841-9.212-32.089Z" transform="translate(-293.141 -223.816)" fill="#fff"/>
      <path id="패스_14" data-name="패스 14" d="M400.462,240.49l-15.552-.5.5-15.478,15.552.5Zm-2.55-13.124-9.614-.31-.341,10.579,9.614.31ZM411.12,252.2l-.079,2.45-22.42-.722.339-10.5,3.043.1-.259,8.054Zm-.816-5.823-3.043-.1.77-23.9,3.044.1Z" transform="translate(-326.349 -222.378)" fill="#fff"/>
      <path id="패스_15" data-name="패스 15" d="M449.184,254.282c5.693,2.056,13.564,4.858,20.788,6.283l-.525,2.218c-7.521-1.254-15.126-3.922-20.784-5.965Zm22.827-5.812c-1.577,4.366-6.154,6.108-11.043,4.343-4.855-1.753-7.3-6.031-5.721-10.4,1.589-4.4,6.188-6.1,11.043-4.343C471.178,239.839,473.6,244.069,472.01,248.469Zm-13.971-5.044c-1.047,2.9.6,5.782,3.81,6.943,3.248,1.173,6.32-.008,7.367-2.907,1.059-2.934-.562-5.77-3.81-6.943C462.193,239.357,459.1,240.491,458.04,243.425Zm24.449-2.108-11.338,31.4-2.864-1.035,11.338-31.4Z" transform="translate(-356.758 -229.539)" fill="#fff"/>
      <path id="패스_16" data-name="패스 16" d="M549.583,315.776c-2.559,2.69-7.032,1.306-12.064-3.479s-6.64-9.182-4.081-11.873c2.584-2.718,7.058-1.334,12.09,3.451S552.167,313.058,549.583,315.776Zm-2.207-2.1c1.536-1.614.2-4.628-3.461-8.107-3.686-3.505-6.762-4.689-8.3-3.074-1.51,1.588-.173,4.6,3.513,8.106C542.79,314.082,545.866,315.265,547.376,313.677Zm-6.794-17.425c-3.041-2.892-3.631-6.527-1.227-9.057,2.354-2.475,6.041-2.1,9.081.8s3.579,6.528,1.225,9C547.256,299.524,543.622,299.143,540.582,296.252Zm1.56-1.641c1.884,1.791,4.122,2.024,5.555.516,1.407-1.48,1.062-3.7-.821-5.494-1.911-1.817-4.122-2.024-5.529-.544C539.914,290.6,540.232,292.794,542.142,294.611Zm13.605-2.076-12.27-11.667,1.663-1.749,5.059,4.81,2.559-2.691,2.179,2.072L552.378,286l5.005,4.758ZM549.5,305.194l-2.1-2,13.254-13.939,2.1,2-5.808,6.107,3.067,2.918,6.243-6.566,2.125,2.021-14.533,15.284L551.724,309l6.575-6.915-3.068-2.917Z" transform="translate(-396.621 -249.442)" fill="#fff"/>
      <path id="패스_17" data-name="패스 17" d="M581.729,350.521l10.966,20.285-9.147,4.945-1.448-2.679,6.99-3.779-9.518-17.607Zm17.763,20.832-2.189,1.184-14.339-26.525,2.188-1.183,6.464,11.956,3.5-1.89-4.557-8.427,10.943-5.916,1.43,2.646L599.6,345l7.7,14.242,3.332-1.8,1.43,2.646L601.115,366l-4.556-8.427-3.495,1.89Zm-5.383-23.388,7.7,14.242,3.4-1.836-7.7-14.242Z" transform="translate(-419.2 -278.745)" fill="#fff"/>
      <path id="패스_18" data-name="패스 18" d="M597.03,421.507l3.745,20.227-2.336.433-4.286-23.148,7.85-1.453,3.555,19.205,2.921-.541L604.9,416.916l2.263-.419,4.123,22.271-7.375,1.366-3.562-19.241ZM617.214,441.6l-2.41.447L609.315,412.4l2.409-.446Zm3.013-27.784c3.688-.683,6.493,3.254,7.825,10.446s.121,11.873-3.567,12.555-6.457-3.261-7.788-10.453S616.539,414.5,620.227,413.814Zm.567,3.066c-2.19.406-2.864,3.7-1.87,9.07s2.8,8.2,4.994,7.8,2.864-3.7,1.87-9.069S622.985,416.476,620.794,416.881Z" transform="translate(-426.154 -312.802)" fill="#fff"/>
      <path id="패스_19" data-name="패스 19" d="M622.469,537.614l-32.417-7.647.7-2.963,32.418,7.647Zm-17.418-9.45a83.379,83.379,0,0,1,1.107-9.544l-11.673-2.754.7-2.963,11.492,2.711c.615-3.251,1.3-6.331,1.934-9.005l2.587.191a152.955,152.955,0,0,0-3.882,21.631Zm14.971-16.727c3.975.938,5.876,5.01,4.733,9.853-1.134,4.807-4.654,7.6-8.63,6.663-3.939-.929-5.839-5-4.706-9.809C612.563,513.3,616.083,510.508,620.022,511.438Zm-.674,2.855c-2.53-.6-4.757,1.243-5.507,4.423-.742,3.144.428,5.786,2.958,6.383s4.757-1.244,5.5-4.388C623.049,517.531,621.878,514.889,619.348,514.293Z" transform="translate(-424.198 -357.951)" fill="#fff"/>
      <path id="패스_20" data-name="패스 20" d="M573.253,573.9,563.3,590.272l-2.126-1.292L572.708,570l8.155,4.956-1.582,2.6Zm4.585,29.206-2.19-1.33,2.546-4.189-9.774-5.94,1.582-2.6,21.356,12.98-1.582,2.6-9.393-5.708Zm2.473-22.874c2.449-4.03,6.222-5.518,9.427-3.571,3.174,1.929,3.59,5.962,1.141,9.993s-6.241,5.55-9.414,3.62C578.259,588.326,577.862,584.26,580.311,580.231Zm2.031,1.234c-1.562,2.57-1.373,5.119.626,6.333,1.968,1.2,4.317.191,5.879-2.38s1.354-5.087-.614-6.282C586.234,577.921,583.9,578.894,582.342,581.464Zm5.012,14.562,10.2-16.788,2.094,1.273-4.3,7.077,3.491,2.122-1.582,2.6-3.491-2.121-4.32,7.108Z" transform="translate(-410.424 -388.19)" fill="#fff"/>
      <path id="패스_21" data-name="패스 21" d="M497.837,651.251l-1.426-2.038,18.225-12.753,5.684,8.124-2.525,1.766-4.258-6.085ZM512.492,665.2l5.855,8.367-2.526,1.767-14.242-20.355,2.526-1.767,6.94,9.919,5.507-3.853L518,661.346Zm-.655-11.688a13.678,13.678,0,0,1,10.988,1.2,13.494,13.494,0,0,1,2.272-11.2l2.61,1.074c-3.089,4.2-3.412,9.5-.751,13.307l.6.852,6.054-4.237,1.405,2.008-6.054,4.237,2.448,3.5-2.495,1.746-2.448-3.5-6.024,4.215-1.4-2.008,6.024-4.215-.6-.851c-2.534-3.621-7.517-4.848-12.458-3.295Z" transform="translate(-379.533 -419.889)" fill="#fff"/>
      <path id="패스_22" data-name="패스 22" d="M458.046,671.191l-18.324,5.6L439,674.411l21.236-6.489,3.082,10.084-2.912.891Zm-15.764,25.668-.737-2.415,4.687-1.433-3.462-11.328,2.912-.89,7.162,23.438-2.912.89-2.962-9.7Zm17.973-14.5c4.758-1.453,9.3.693,10.708,5.309s-1.153,8.933-5.912,10.388-9.3-.693-10.708-5.309S455.5,683.813,460.256,682.358Zm.77,2.521a5.572,5.572,0,1,0,7.1,3.656A5.463,5.463,0,0,0,461.026,684.879Z" transform="translate(-352.147 -434.895)" fill="#fff"/>
      <path id="패스_23" data-name="패스 23" d="M375.9,713.7l.5-33.381,3.045.045-.5,33.38Zm27.27-23.1c-6.052-.09-14.406-.177-21.7.828l-.227-2.27c7.521-1.262,15.579-1.215,21.594-1.125Zm-19.69,12.928c.069-4.642,3.83-7.78,9.028-7.7,5.161.076,8.863,3.325,8.794,7.967-.07,4.679-3.867,7.779-9.028,7.7C387.081,711.411,383.415,708.2,383.485,703.522Zm14.852.22c.046-3.081-2.447-5.273-5.863-5.323-3.453-.052-5.972,2.064-6.019,5.146-.047,3.118,2.41,5.272,5.863,5.324C395.734,708.94,398.29,706.862,398.337,703.742Z" transform="translate(-322.054 -440.807)" fill="#fff"/>
      <path id="패스_24" data-name="패스 24" d="M273.938,680.628l24.349,11.23-1,2.159L286.4,688.994l-1.4,3.035-2.766-1.276,1.4-3.035-10.69-4.931Zm3.905-12.635,1.012-2.191,27.35,12.614-1.011,2.192Zm8.761,17c-6.239-2.878-9.08-6.028-7.758-8.894s5.563-2.75,11.8.127,9.047,6.013,7.724,8.879S292.843,687.876,286.6,685Zm.9-1.956c4.383,2.023,7.234,2.315,7.966.73.715-1.551-1.358-3.529-5.742-5.551s-7.235-2.314-7.95-.763C281.05,679.042,283.122,681.021,287.507,683.042Zm-2.234-22.378c1.416-3.069,5.939-2.945,12.515.088s9.607,6.394,8.191,9.462c-1.384,3-5.923,2.911-12.5-.122S283.889,663.665,285.273,660.664Zm2.833,1.306c-.778,1.687,1.5,3.841,6.323,6.066s7.94,2.558,8.718.871c.793-1.719-1.484-3.875-6.307-6.1S288.9,660.25,288.106,661.97Z" transform="translate(-272.942 -430.362)" fill="#fff"/>
    </g>
  </g>
</svg>
