<svg width="119" height="30" viewBox="0 0 119 30" fill="none" xmlns="http://www.w3.org/2000/svg">
<path d="M102.171 29.2203C101.871 29.2803 101.571 29.3903 101.271 29.3903C100.561 29.3803 99.8614 29.3003 99.1514 29.2803C98.1914 29.2503 97.2214 28.3303 97.2414 27.3903C97.2614 26.6603 97.3414 25.9403 97.3614 25.2103C97.3814 24.4003 97.1614 24.0703 96.3614 24.0103C95.7614 23.9703 95.1214 24.0803 94.5314 24.2203C93.5714 24.4603 93.7614 25.3303 94.0614 26.1803C94.4414 27.2603 95.4314 27.7503 96.2114 28.4503C96.3714 28.6003 96.4714 28.8103 96.6014 29.0003C96.3914 29.1403 96.1814 29.3903 95.9714 29.3903C94.9714 29.3903 93.9614 29.4003 92.9814 29.2403C92.5614 29.1703 92.2014 28.7003 91.8214 28.4003C91.0314 27.7403 90.3014 26.9803 89.4314 26.4503C89.0414 26.2103 88.3514 26.3403 87.8314 26.4403C87.3714 26.5303 87.1114 26.9203 87.1514 27.4203C87.1914 27.8903 87.2214 28.3603 87.8614 28.4603C88.0214 28.4903 88.1314 28.7703 88.2714 28.9303C88.0814 29.0103 87.9014 29.1203 87.7114 29.1603C87.4514 29.2203 87.1814 29.2603 86.9214 29.2603C86.2914 29.2603 85.6614 29.2403 85.0314 29.2303C84.8914 29.2303 84.7614 29.2003 84.6214 29.2203C83.9014 29.2803 83.5614 28.9603 83.6314 28.4003C83.7314 27.6103 83.8614 26.8203 84.0514 26.0403C84.2414 25.2703 84.6614 24.5203 84.7014 23.7503C84.7514 23.0003 84.5014 22.2103 84.3014 21.4603C84.0714 20.6103 83.6514 19.8103 83.4714 18.9603C83.2014 17.7303 83.1414 16.4903 84.0014 15.3903C84.3914 14.8903 84.6114 14.2603 85.0314 13.8003C85.8814 12.8803 86.5914 11.8903 87.9314 11.4103C88.9514 11.0503 89.9614 10.9603 90.9714 10.7503C91.0314 10.7403 91.1014 10.7303 91.1614 10.7503C92.2214 11.1603 93.3314 11.2103 94.4514 11.3003C94.9814 11.3403 95.5114 11.4603 96.0514 11.4903C97.0114 11.5503 97.9714 11.6503 98.9214 11.6103C100.281 11.5503 101.651 11.4303 103.001 11.2403C104.301 11.0503 105.551 11.1403 106.821 11.4203C107.781 11.6303 108.781 11.9003 109.741 11.8403C110.841 11.7703 111.851 11.8903 112.771 12.4103C114.621 13.4603 116.481 14.4803 118.141 15.8303C118.571 16.1803 118.571 16.7503 118.011 17.0403C117.221 17.4603 116.371 17.7603 115.521 18.0503C114.281 18.4803 112.971 18.7303 111.791 19.2803C110.521 19.8703 109.381 20.7603 108.151 21.4503C107.501 21.8203 106.901 22.1903 106.501 22.8503C106.191 23.3603 106.111 23.7903 106.421 24.3403C106.731 24.8903 107.011 25.4903 107.161 26.1003C107.381 26.9803 108.001 27.4303 108.711 27.8503C109.051 28.0503 109.401 28.2103 109.731 28.4303C109.891 28.5403 110.081 28.7403 110.071 28.8803C110.061 29.0303 109.841 29.2703 109.681 29.2903C109.171 29.3703 108.661 29.3703 108.141 29.3803C107.891 29.3803 107.641 29.2803 107.401 29.3003C106.211 29.4303 105.401 28.8603 104.591 28.0603C103.881 27.3503 103.001 26.8203 102.171 26.2503C101.971 26.1103 101.651 26.0303 101.431 26.0803C101.001 26.1803 100.431 26.1703 100.381 26.8303C100.331 27.4803 100.721 28.0203 101.351 28.3103C101.671 28.4603 101.931 28.7503 102.221 28.9703C102.211 29.0403 102.191 29.1303 102.171 29.2203Z" fill="#1D1D1D"/>
<path d="M5.95133 3.70066C6.77133 3.25066 7.48133 3.02066 7.79133 2.30066C8.28133 1.15066 9.27133 0.700664 10.3713 0.420664C10.6913 0.340664 11.0613 0.510664 11.4113 0.520664C13.0213 0.570664 14.6413 0.790664 15.8813 1.83066C17.0213 2.79066 18.1613 3.78066 18.7913 5.26066C19.4013 6.68066 19.6813 8.07066 19.5613 9.62066C19.4513 11.0107 19.1413 12.2707 18.5013 13.5107C18.0113 14.4607 17.9713 15.4407 18.6713 16.4707C19.1713 17.2107 19.2713 18.2407 19.5213 19.1407C19.9213 20.6407 19.5313 22.1107 19.2613 23.5807C19.2413 23.6807 19.1913 23.7807 19.1413 23.8607C18.5913 24.7707 18.1513 25.7907 17.4413 26.5607C16.6513 27.4207 15.6713 28.1307 14.5013 28.5307C13.0713 29.0207 11.6113 29.2407 10.1313 29.2707C7.29133 29.3207 4.46133 29.2907 1.62133 29.2807C1.40133 29.2807 1.17133 29.2307 0.951333 29.2007C0.311333 29.1007 0.081333 28.7607 0.081333 28.0807C0.101333 19.4407 0.101333 10.8007 0.0913332 2.17066C0.0913332 1.82066 0.0413331 1.47066 0.0013331 1.12066C-0.0286669 0.670664 0.451333 0.170664 1.07133 0.150664C1.84133 0.130664 2.61133 0.240664 3.38133 0.240664C3.81133 0.240664 4.25133 0.190664 4.67133 0.110664C5.56133 -0.0593359 6.05133 0.470664 5.94133 1.38066C5.85133 2.09066 5.94133 2.81066 5.95133 3.70066ZM9.25133 17.2307C9.25133 17.2507 9.25133 17.2707 9.25133 17.2907C8.66133 17.2907 8.07133 17.2907 7.48133 17.2907C6.47133 17.2907 6.07133 17.5907 5.93133 18.5607C5.87133 19.0107 5.95133 19.4807 5.97133 19.9307C5.99133 20.2607 6.03133 20.5907 6.02133 20.9207C6.01133 21.3107 5.90133 21.7007 5.92133 22.0907C5.96133 23.2207 6.45133 23.8607 7.39133 23.8607C8.93133 23.8607 10.4913 23.9007 11.9913 23.6507C12.6713 23.5307 13.4513 22.8607 13.8013 22.2307C14.1513 21.6007 14.1013 20.7007 14.1013 19.9207C14.1013 18.6807 13.0813 17.5607 11.8713 17.4107C11.0013 17.3207 10.1213 17.2907 9.25133 17.2307ZM9.00133 5.96066C9.00133 5.99066 8.99133 6.03066 8.99133 6.06066C8.42133 6.06066 7.86133 6.06066 7.29133 6.06066C6.51133 6.07066 6.04133 6.52066 6.04133 7.29066C6.03133 8.34066 6.04133 9.40066 6.04133 10.4507C6.04133 11.4307 6.40133 11.7707 7.41133 11.7407C8.64133 11.7007 9.88133 11.6407 11.1113 11.6207C12.5713 11.6007 13.6013 10.8307 13.9513 9.44066C14.3313 7.96066 13.5713 6.61066 12.0913 6.32066C11.0713 6.12066 10.0313 6.07066 9.00133 5.96066Z" fill="#1D1D1D"/>
<path d="M61.1614 15.3307C61.1614 11.2707 61.1614 7.21069 61.1614 3.16069C61.1614 2.42069 61.1614 1.68069 61.1614 0.940686C61.1614 0.400686 61.6614 -0.0193144 62.1914 0.000685622C63.3814 0.0506856 64.5714 0.100686 65.7614 0.120686C66.7314 0.140686 67.1014 0.630686 66.8814 1.57069C66.7914 1.97069 66.7214 2.39069 66.7314 2.80069C66.7414 3.04069 66.8814 3.43069 67.0414 3.47069C67.2614 3.53069 67.6214 3.41069 67.8114 3.24069C68.3814 2.73069 68.9114 2.18069 69.4414 1.63069C70.4614 0.570685 71.7414 0.430686 73.1014 0.550686C73.5714 0.590686 74.0914 0.540686 74.5214 0.710686C76.1314 1.32069 77.7314 2.09069 78.7614 3.48069C79.5914 4.59069 80.2714 5.83069 80.4914 7.30069C80.8214 9.46069 80.5214 11.4507 79.4714 13.3607C78.9514 14.3007 78.3314 15.1207 77.4914 15.7907C76.9714 16.2007 76.9714 16.6607 77.3914 17.3107C78.4114 18.8707 79.0814 20.5607 79.1814 22.4307C79.2914 24.5607 79.9514 26.4407 81.3214 28.0907C81.5014 28.3107 81.6314 28.8507 81.5114 28.9707C81.2614 29.2107 80.8314 29.3707 80.4814 29.3807C79.4114 29.4007 78.3514 29.3007 77.2814 29.2907C76.4614 29.2807 75.7714 29.1107 75.4014 28.2707C74.9814 27.3407 74.3814 26.4607 74.1214 25.4907C73.8714 24.5607 73.9914 23.5507 73.8814 22.5807C73.7014 20.9907 73.0514 19.6407 71.9614 18.4307C70.7614 17.0907 69.2514 17.1607 67.7214 17.2107C67.4514 17.2207 67.0214 17.5907 66.9714 17.8507C66.8014 18.7007 66.7314 19.5707 66.7114 20.4307C66.6914 21.2207 66.8114 22.0107 66.8214 22.8007C66.8414 24.4207 66.8314 26.0407 66.8214 27.6607C66.8214 27.9707 66.7314 28.2707 66.7014 28.5807C66.6614 29.0907 66.3114 29.2607 65.8914 29.2707C64.6314 29.3007 63.3714 29.2907 62.1114 29.2707C61.4614 29.2607 61.1514 28.8407 61.1514 28.0207C61.1514 25.8507 61.1514 23.6907 61.1514 21.5207C61.1614 19.4507 61.1614 17.3907 61.1614 15.3307ZM69.3614 6.44069C68.8614 6.44069 68.3414 6.38069 67.8514 6.46069C67.5314 6.52069 67.0914 6.73069 66.9814 6.99069C66.7814 7.44069 66.7514 7.98069 66.7214 8.49069C66.6814 9.18069 66.7514 9.88068 66.7014 10.5707C66.6614 11.1207 67.0214 11.7307 67.5414 11.7307C69.2614 11.7407 70.9914 11.7707 72.7114 11.7207C74.0414 11.6807 74.5214 11.2907 74.8914 10.0107C75.0014 9.62068 75.0214 9.20069 75.0214 8.79069C75.0414 7.55069 73.9014 6.43069 72.6514 6.43069C71.5614 6.44069 70.4614 6.44069 69.3614 6.44069Z" fill="#1D1D1D"/>
<path d="M39.5912 23.2805C39.5912 21.6005 39.5912 19.9205 39.5912 18.2405C39.5912 12.5205 39.5912 6.80048 39.5912 1.08048C39.5912 0.400476 39.8412 0.140476 40.5212 0.140476C41.6112 0.130476 42.7112 0.140476 43.8012 0.140476C44.0312 0.140476 44.2812 0.160476 44.4812 0.090476C45.0112 -0.109524 45.6412 0.490476 45.6412 1.10048C45.6412 4.08048 45.6412 7.07048 45.6412 10.0505C45.6412 10.2705 45.5312 10.5005 45.5712 10.7005C45.7612 11.7005 46.3112 11.9505 47.5512 11.7505C48.0712 11.6605 48.6112 11.7405 49.1412 11.7305C50.3712 11.7005 51.6012 11.7105 52.8212 11.5905C53.3912 11.5305 53.6212 11.0505 53.5112 10.4305C53.4512 10.1205 53.5812 9.78048 53.5812 9.46048C53.5912 6.77048 53.5812 4.08048 53.5812 1.39048C53.5812 0.390476 54.1212 0.0204757 55.1312 0.120476C56.1412 0.210476 57.1612 0.140476 58.1812 0.150476C59.2712 0.150476 59.5112 0.440475 59.4012 1.50048C59.3612 1.91048 59.4812 2.33048 59.4812 2.74048C59.4812 3.21048 59.3912 3.69048 59.3912 4.16048C59.3812 11.0705 59.3912 17.9905 59.3912 24.9005C59.3912 26.0405 59.4012 27.1805 59.3912 28.3205C59.3812 29.1205 58.8712 29.4305 58.0812 29.3405C57.1212 29.2405 56.1512 29.2905 55.1912 29.2905C53.7612 29.2805 53.4912 29.0505 53.4712 27.6105C53.4612 26.9905 53.5612 26.3705 53.5812 25.7505C53.6012 25.0805 53.5912 24.4005 53.5912 23.7205C53.5912 22.1405 53.5912 20.5705 53.5912 18.9905C53.5912 17.3305 53.1412 17.3605 51.8312 17.2205C50.7012 17.0905 49.5312 17.2905 48.3812 17.3005C47.8012 17.3105 47.2212 17.2405 46.6412 17.1805C46.1212 17.1205 45.8412 17.4305 45.7112 17.8405C45.5812 18.2505 45.5212 18.6905 45.5312 19.1205C45.5512 20.4805 45.6312 21.8405 45.6412 23.1905C45.6412 24.4205 45.5612 25.6505 45.5312 26.8805C45.5212 27.4105 45.5912 27.9505 45.5112 28.4605C45.3812 29.2905 45.1512 29.3505 44.3012 29.3105C43.1612 29.2505 42.0212 29.2605 40.8812 29.3005C39.7812 29.3405 39.5412 29.1305 39.5812 27.9705C39.6212 26.3905 39.5912 24.8405 39.5912 23.2805Z" fill="#1D1D1D"/>
<path d="M21.3013 14.5107C21.3013 10.0107 21.3013 5.51065 21.3013 1.02065C21.3013 0.220655 21.7513 0.000654649 22.5413 0.100655C23.5113 0.220655 24.5213 0.190655 25.5013 0.100655C26.5113 0.0106546 26.9913 0.500655 26.8313 1.49065C26.7413 2.06065 26.8413 2.67065 26.9113 3.26065C26.9313 3.41065 27.1913 3.65065 27.3113 3.64065C27.5513 3.61065 27.8213 3.47066 27.9813 3.29066C28.7513 2.41066 29.4513 1.47065 30.2613 0.620655C30.5213 0.340655 31.0213 0.160655 31.4213 0.150655C33.2913 0.100655 35.1613 0.120655 37.0313 0.130655C37.7913 0.130655 38.0413 0.550655 38.0013 1.33066C37.9613 2.30066 38.0613 3.28065 38.0713 4.26065C38.0713 4.67065 38.0413 5.09065 37.9413 5.49065C37.8213 5.98065 37.4013 6.06065 36.9513 6.05065C34.0713 6.05065 31.1913 6.06066 28.3113 6.04066C27.2113 6.04066 26.9913 6.27066 26.9013 7.16066C26.7813 8.31065 26.8013 9.48066 26.9013 10.6307C26.9713 11.4707 27.3813 11.7207 28.2613 11.7207C30.5313 11.7207 32.8013 11.7207 35.0713 11.7207C35.9413 11.7207 36.1713 11.9707 36.1913 12.8207C36.2213 13.9007 36.2713 14.9907 36.3113 16.0707C36.3413 16.8407 35.6713 17.3807 34.9213 17.2007C34.7413 17.1607 34.5513 17.1407 34.3613 17.1407C33.0813 17.1807 31.8113 17.2307 30.5313 17.2607C29.7713 17.2807 29.0113 17.2307 28.2513 17.2707C27.2413 17.3307 26.8513 17.7707 26.8513 18.7607C26.8513 19.8707 26.8413 20.9907 26.8613 22.1007C26.8713 22.5107 26.9113 22.9307 27.0013 23.3307C27.1213 23.8407 27.5213 23.9507 28.0113 23.9507C30.8513 23.9407 33.6813 23.9507 36.5213 23.9407C37.7813 23.9407 38.1113 24.3107 38.0813 25.5207C38.0613 26.3607 38.0813 27.2007 38.0713 28.0407C38.0613 28.9207 37.7313 29.2407 36.8613 29.2407C32.0013 29.2407 27.1413 29.2407 22.2913 29.2407C21.5413 29.2407 21.3013 29.0007 21.3013 28.2307C21.2913 23.6807 21.3013 19.0907 21.3013 14.5107Z" fill="#1D1D1D"/>
</svg>
