<svg width="25" height="25" viewBox="0 0 25 25" fill="none" xmlns="http://www.w3.org/2000/svg">
<path d="M21.6034 8.03021C21.3844 7.23165 20.7409 6.60169 19.9239 6.38868C18.4417 6 12.5005 6 12.5005 6C12.5005 6 6.5583 6 5.07714 6.38868C4.26012 6.60169 3.6156 7.23165 3.39663 8.03021C3 9.47891 3 12.5005 3 12.5005C3 12.5005 3 15.5221 3.39663 16.9708C3.6156 17.7704 4.25909 18.3993 5.07714 18.6124C6.55934 19 12.5005 19 12.5005 19C12.5005 19 18.4417 19 19.9239 18.6124C20.7409 18.3983 21.3854 17.7694 21.6034 16.9708C22 15.5221 22 12.5005 22 12.5005C22 12.5005 22 9.47891 21.6034 8.03021ZM10.6 15.2859V9.71414L15.5362 12.5005L10.6 15.2859Z" fill="#484848"/>
</svg>
