<svg width="25" height="25" viewBox="0 0 25 25" fill="none" xmlns="http://www.w3.org/2000/svg">
<path d="M8.60233 3.06514C7.58175 3.10857 6.88689 3.27143 6.27888 3.51029C5.66002 3.76001 5.12802 4.08572 4.59601 4.61773C4.06401 5.14973 3.73829 5.68174 3.49943 6.31146C3.26057 6.91946 3.10857 7.61432 3.05429 8.6349C3.01086 9.65548 3 9.9812 3 12.5761C3.01086 15.171 3.02171 15.4967 3.06514 16.5173C3.10857 17.5378 3.27143 18.2327 3.51029 18.8299C3.76001 19.4596 4.08572 19.9916 4.61773 20.5236C5.14973 21.0556 5.68173 21.3813 6.31145 21.6202C6.91946 21.859 7.61432 22.011 8.6349 22.0653C9.65548 22.1087 9.9812 22.1196 12.5761 22.1196C15.1709 22.1087 15.4967 22.1087 16.5172 22.0545C17.5378 22.011 18.2327 21.8482 18.8407 21.6093C19.4704 21.3596 20.0024 21.0339 20.5344 20.5019C21.0664 19.9699 21.3921 19.4379 21.631 18.8081C21.8698 18.2001 22.0219 17.5053 22.0761 16.4847C22.1196 15.4641 22.1304 15.1384 22.1304 12.5435C22.1196 9.94863 22.1196 9.62291 22.0653 8.60233C22.0219 7.58175 21.859 6.88689 21.6201 6.27888C21.3704 5.64917 21.0447 5.11716 20.5127 4.58516C19.9807 4.05315 19.4487 3.72743 18.819 3.48857C18.211 3.24972 17.5161 3.09772 16.4955 3.04343C15.4641 3.01086 15.1384 3 12.5435 3C9.94862 3.01086 9.62291 3.02171 8.60233 3.06514ZM8.7109 20.339C7.77718 20.2956 7.27775 20.1436 6.94117 20.0133C6.49603 19.8396 6.18117 19.6333 5.84459 19.2967C5.50802 18.9601 5.30173 18.6453 5.12802 18.2001C4.99773 17.8636 4.83487 17.3533 4.79144 16.4304C4.74801 15.4207 4.73716 15.1167 4.7263 12.5652C4.7263 10.0138 4.7263 9.70977 4.76973 8.70005C4.81316 7.76632 4.96516 7.26689 5.09544 6.93032C5.26916 6.48517 5.47545 6.17031 5.81202 5.83374C6.1486 5.49716 6.46345 5.29088 6.9086 5.11716C7.24517 4.98687 7.75546 4.83487 8.67833 4.78059C9.68805 4.73716 9.99205 4.7263 12.5326 4.71544C15.0841 4.71544 15.3881 4.71544 16.3978 4.75887C17.3315 4.8023 17.831 4.9543 18.1675 5.08459C18.6127 5.25831 18.9384 5.46459 19.2641 5.80117C19.6007 6.13774 19.807 6.4526 19.9807 6.89775C20.111 7.23432 20.263 7.74461 20.3173 8.66747C20.3607 9.6772 20.3716 9.9812 20.3824 12.5218C20.3933 15.0733 20.3824 15.3773 20.339 16.387C20.2956 17.3207 20.1436 17.8201 20.0133 18.1676C19.8395 18.6127 19.6333 18.9276 19.2967 19.2641C18.9601 19.6007 18.6453 19.807 18.2001 19.9807C17.8635 20.111 17.3532 20.263 16.4304 20.3173C15.4207 20.3607 15.1167 20.3716 12.5652 20.3824C10.0246 20.3933 9.72062 20.3824 8.7109 20.339ZM16.5064 7.45146C16.5064 8.08118 17.0275 8.59147 17.6572 8.59147C18.287 8.59147 18.8081 8.07033 18.7973 7.44061C18.7973 6.81089 18.2761 6.3006 17.6464 6.3006C17.0167 6.3006 16.5064 6.82175 16.5064 7.45146ZM7.65775 12.5652C7.65775 15.2795 9.86177 17.4618 12.5761 17.4618C15.2795 17.451 17.4727 15.2578 17.4727 12.5435C17.4618 9.84005 15.2687 7.63604 12.5544 7.64689C9.84005 7.65775 7.64689 9.86177 7.65775 12.5652ZM9.37319 12.5652C9.37319 10.8063 10.7955 9.38405 12.5544 9.37319C14.3132 9.37319 15.7464 10.7955 15.7464 12.5544C15.7464 14.3133 14.3241 15.7464 12.5652 15.7464C10.8064 15.7464 9.38405 14.3241 9.37319 12.5652Z" fill="#484848"/>
</svg>
