<svg xmlns="http://www.w3.org/2000/svg" xmlns:xlink="http://www.w3.org/1999/xlink" width="200" height="44.529" viewBox="0 0 200 44.529">
  <defs>
    <radialGradient id="radial-gradient" cx="0.75" cy="0.3" r="1.033" gradientTransform="translate(0.006) scale(0.987 1)" gradientUnits="objectBoundingBox">
      <stop offset="0" stop-color="#008ed2"/>
      <stop offset="0.66" stop-color="#00398f"/>
      <stop offset="1" stop-color="#0072c0"/>
    </radialGradient>
    <radialGradient id="radial-gradient-2" cx="0.77" cy="0.58" r="0.951" gradientTransform="translate(-0.01) scale(1.021 1)" gradientUnits="objectBoundingBox">
      <stop offset="0" stop-color="#b9e6fb"/>
      <stop offset="0.63" stop-color="#00b8eb"/>
      <stop offset="1" stop-color="#88d5f8"/>
    </radialGradient>
  </defs>
  <g id="그룹_5" data-name="그룹 5" transform="translate(-198.014 -352.595)">
    <g id="그룹_1" data-name="그룹 1" transform="translate(198.014 352.595)">
      <path id="패스_1" data-name="패스 1" d="M235.99,359.123a22.263,22.263,0,1,1-26.161-3.888l3.077-.228S224.653,348.913,235.99,359.123Z" transform="translate(-198.014 -352.633)" fill-rule="evenodd" fill="url(#radial-gradient)"/>
      <path id="패스_2" data-name="패스 2" d="M205.371,378.933a15.649,15.649,0,0,0,13.66,2.438,15.1,15.1,0,0,0,9.257-8.061c1.77-4.114.822-9.428-3.921-10.951-2.907-.934-6.44.407-8.725,2.226-1.886,1.5-3.891,3.766-6.633,2.782-2.144-.77-2.933-3.46-1.1-6.672,1.821-3.186,5.718-6.279,11.925-6.71a22.942,22.942,0,0,1,16.167,5.1,22.278,22.278,0,0,0-26.165-3.888,17.9,17.9,0,0,0-7.605,8c-2.43,5.2-1.9,11.863,3.138,15.734Zm-4.5-14.964c-3.008,7.062-.8,15.75,6.168,19.694,6.354,3.6,15.175,3.158,20.7-2.2,1.78-1.727,3.139-4.334,5.326-5.456a3.411,3.411,0,0,1,3.365.015c1.749,1.169,1.806,3.313,1.17,5.317a14.2,14.2,0,0,1-3.492,5.433,20.575,20.575,0,0,1-9.483,5.642A22.356,22.356,0,0,1,205.7,389a19.086,19.086,0,0,1-6.29-21.893A22.133,22.133,0,0,1,200.869,363.968Z" transform="translate(-198.026 -352.595)" fill-rule="evenodd" fill="url(#radial-gradient-2)"/>
    </g>
    <path id="패스_3" data-name="패스 3" d="M391.163,362.4v-1.563l-11.032.008q0,4.133.007,8.265a1.894,1.894,0,0,0,.628,1.507,2.535,2.535,0,0,0,1.728.547l9.547-.007v-1.587l-8.549.007-.006-7.171,7.679-.006Zm-93.348,12.5a1.4,1.4,0,0,0-1.443-1.351l-4.674,0,0-3.731,8.855-.007v-1.563l-3.788,0a4.247,4.247,0,0,0,.511-.8,5.894,5.894,0,0,0,.308-.895,8.97,8.97,0,0,0,.23-.927,5.516,5.516,0,0,0,.076-.9q0-1.536,0-3.072a1.406,1.406,0,0,0-1.444-1.35l-14.2.011v1.564l12.261-.01,0,2.949a13.964,13.964,0,0,1-.113,1.788,6.73,6.73,0,0,1-.421,1.653l-14.308.01v1.563l8.677-.006,0,3.731-6.195,0v1.563l12.26-.009,0,5.674,3.4,0q0-2.943,0-5.885Zm86.9-.993H382.8q0,2.345,0,4.691a1.9,1.9,0,0,0,.668,1.552,2.652,2.652,0,0,0,1.741.546l13.079-.008v-1.563l-12.132.008,0-3.875a1.4,1.4,0,0,0-1.442-1.351Zm11.634-13.792a1.4,1.4,0,0,1,1.443,1.35q0,1.547,0,3.094l3.764,0v1.563l-3.764,0,.008,9.092-3.354,0q0-7.551-.011-15.1l1.91,0Zm-28.043.022h-1.794q.008,10.288.016,20.575l3.148,0-.009-13.314,2.3,0,.009,13.314,3.149,0q-.007-9.652-.015-19.3a1.318,1.318,0,0,0-1.355-1.269l-1.794,0q0,2.847,0,5.7l-2.3,0q0-2.213,0-4.427a1.317,1.317,0,0,0-1.356-1.268Zm-21.917.016-1.924,0q0,5.562.007,11.124l3.379,0,0-3.105,3.763,0V366.6l-3.763,0,0-1.806,3.763,0v-1.563l-3.763,0,0-1.723a1.414,1.414,0,0,0-1.455-1.361Zm-27.774.022h-1.793q.008,10.288.016,20.574l3.148,0-.009-12.129,1.919,0,.009,12.129,3.147,0q-.007-9.652-.014-19.3a1.317,1.317,0,0,0-1.355-1.268h-1.794q0,3.439.006,6.88l-1.919,0q0-2.807,0-5.611a1.317,1.317,0,0,0-1.356-1.268ZM260.794,374.4l-1.91,0q0,2.145,0,4.29a1.908,1.908,0,0,0,.654,1.551,2.593,2.593,0,0,0,1.728.547l12.8-.01v-1.563l-11.824.009,0-3.474a1.4,1.4,0,0,0-1.443-1.351Zm11.354-14.192a1.4,1.4,0,0,1,1.444,1.351q0,1.737,0,3.474l3.762,0v1.586l-3.762,0,.006,8.713-3.353,0q-.006-7.563-.011-15.125Zm82.745,1.322,0,1.877,3.685,0a16.471,16.471,0,0,1-.649,4.937,15.356,15.356,0,0,1-1.06,2.7,11.552,11.552,0,0,1-1.343,2.09,12.984,12.984,0,0,1-1.445,1.509l1.949,1.9a6.427,6.427,0,0,0,1.3-1.14,14.821,14.821,0,0,0,1.2-1.543,13.3,13.3,0,0,0,.984-1.7,15.048,15.048,0,0,0,.678-1.608,16.234,16.234,0,0,0,1.947,2.41q1.127,1.162,2.613,2.5l1.2-1.587c-.564-.5-1.077-.979-1.537-1.418s-.885-.892-1.28-1.35a13.578,13.578,0,0,1-1.1-1.452,16.073,16.073,0,0,1-1-1.786,13.953,13.953,0,0,0,.356-2.033q.127-1.161.2-2.391l3.4,0,0-1.921-10.11.007Zm-13.16,10.443a7.2,7.2,0,0,0-2.328.358,6.1,6.1,0,0,0-1.894,1.052,4.976,4.976,0,0,0-1.33,1.554,4.033,4.033,0,0,0,0,3.641,4.98,4.98,0,0,0,1.333,1.528,5.964,5.964,0,0,0,1.9,1.06,7.947,7.947,0,0,0,4.645,0,5.843,5.843,0,0,0,1.906-1.062,5.147,5.147,0,0,0,1.317-1.531,3.924,3.924,0,0,0,0-3.641,5.175,5.175,0,0,0-1.32-1.55,5.926,5.926,0,0,0-1.908-1.049,7.225,7.225,0,0,0-2.317-.355Zm0,1.563a2.047,2.047,0,0,1,1.1.3,3.017,3.017,0,0,1,.846.77,3.813,3.813,0,0,1,.525,1.039,3.427,3.427,0,0,1-.548,3.249,2.693,2.693,0,0,1-.833.728,2.19,2.19,0,0,1-1.087.28,2.258,2.258,0,0,1-1.1-.266,2.737,2.737,0,0,1-.844-.715,3.413,3.413,0,0,1-.525-1.017,3.593,3.593,0,0,1-.194-1.151,3.756,3.756,0,0,1,.179-1.128,3.527,3.527,0,0,1,.511-1.038,2.842,2.842,0,0,1,.844-.761,2.15,2.15,0,0,1,1.124-.291Zm-12.469-7.81a4.464,4.464,0,0,1,.445-1.987,4.944,4.944,0,0,1,1.368-1.654,6.663,6.663,0,0,1,2-1.141,7.707,7.707,0,0,1,4.774,0,6.536,6.536,0,0,1,2.009,1.139,4.956,4.956,0,0,1,1.345,1.652,4.622,4.622,0,0,1,0,3.976,4.986,4.986,0,0,1-1.343,1.654,6.5,6.5,0,0,1-2.007,1.14,7.688,7.688,0,0,1-4.774,0,6.672,6.672,0,0,1-2-1.138,4.948,4.948,0,0,1-1.37-1.652,4.46,4.46,0,0,1-.449-1.989Zm9.034-.028a4.2,4.2,0,0,0-.205-1.285,4.363,4.363,0,0,0-.565-1.15,2.787,2.787,0,0,0-.9-.826,2.306,2.306,0,0,0-1.177-.311,2.344,2.344,0,0,0-1.216.313,2.9,2.9,0,0,0-.881.828,3.532,3.532,0,0,0-.536,1.14,4.815,4.815,0,0,0-.179,1.3,4.943,4.943,0,0,0,.18,1.34,3.586,3.586,0,0,0,.539,1.139,2.894,2.894,0,0,0,.883.826,2.343,2.343,0,0,0,1.216.311,2.307,2.307,0,0,0,1.177-.313,2.8,2.8,0,0,0,.895-.828,4.33,4.33,0,0,0,.563-1.15,4.243,4.243,0,0,0,.2-1.33Zm-30.6-3.62,4.658,0v-1.452l-4.658,0v1.452Zm2.332,4.13a1.668,1.668,0,0,1,.961.29,2.591,2.591,0,0,1,.7.737,3.9,3.9,0,0,1,.448.972,3.608,3.608,0,0,1,.167,1.038,3.913,3.913,0,0,1-.153,1.061,3.552,3.552,0,0,1-.46,1,2.484,2.484,0,0,1-.7.725,1.707,1.707,0,0,1-.96.28,1.79,1.79,0,0,1-1.01-.279,2.563,2.563,0,0,1-.732-.725,3.319,3.319,0,0,1-.422-.983,4.2,4.2,0,0,1-.141-1.072,3.851,3.851,0,0,1,.152-1.062,3.162,3.162,0,0,1,.46-.972,2.77,2.77,0,0,1,.73-.727,1.7,1.7,0,0,1,.958-.28ZM304.7,363.6v1.519l3.327,0a7.7,7.7,0,0,0-2.482,1.9,3.515,3.515,0,0,0-.817,2.235,4.016,4.016,0,0,0,.384,1.743,4.7,4.7,0,0,0,1.178,1.473,5.227,5.227,0,0,0,1.678,1,6.03,6.03,0,0,0,2.06.335,5.791,5.791,0,0,0,2.047-.339,5.043,5.043,0,0,0,1.637-1.005A5.65,5.65,0,0,0,314.91,371a3.6,3.6,0,0,0,.42-1.755,3.475,3.475,0,0,0-.834-2.233,7.867,7.867,0,0,0-2.471-1.9l3.3,0v-1.518L304.7,363.6Zm-46.137-2.152,5.809,0v-1.452l-5.81,0,0,1.453Zm-3.532,1.052v1.541l3.3,0a6.976,6.976,0,0,0-1.867,1.855,3.6,3.6,0,0,0-.612,1.967,3.951,3.951,0,0,0,.4,1.753A4.332,4.332,0,0,0,257.5,371.1a6.292,6.292,0,0,0,1.832,1.016,6.437,6.437,0,0,0,2.137.344,6.6,6.6,0,0,0,2.136-.337,5.827,5.827,0,0,0,1.83-1.029,4.6,4.6,0,0,0,1.228-1.486,3.867,3.867,0,0,0,.408-1.754,3.535,3.535,0,0,0-.641-1.987,7.2,7.2,0,0,0-1.87-1.831l3.353,0v-1.542l-12.874.01Zm6.426,2.207a1.82,1.82,0,0,1,1.011.29,3,3,0,0,1,.781.736,3.846,3.846,0,0,1,.487,1.005,3.613,3.613,0,0,1,.18,1.117,3.866,3.866,0,0,1-.166,1.116,3.459,3.459,0,0,1-.5,1.028,2.593,2.593,0,0,1-.767.738,1.969,1.969,0,0,1-2.06,0,2.862,2.862,0,0,1-.782-.76,3.913,3.913,0,0,1-.474-1.027,3.674,3.674,0,0,1,0-2.19,3.561,3.561,0,0,1,.473-1,2.86,2.86,0,0,1,.78-.761A1.863,1.863,0,0,1,261.462,364.707Z" transform="translate(-3.544 -0.46)" fill="#fff"/>
    <g id="그룹_2" data-name="그룹 2" transform="translate(253.653 384.719)">
      <path id="패스_4" data-name="패스 4" d="M257.34,386.955h1.206v2.533l2.171-2.533H262.2l-2.472,2.778,2.575,3.116h-1.577l-2.163-2.736h-.017v2.736H257.34Z" transform="translate(-257.34 -386.855)" fill="#fff"/>
      <path id="패스_5" data-name="패스 5" d="M267.337,386.848a3.05,3.05,0,1,1-2.947,3.03A2.781,2.781,0,0,1,267.337,386.848Zm0,5.167c1.231,0,1.688-1.072,1.688-2.136,0-1.038-.491-2.1-1.688-2.1s-1.689,1.063-1.689,2.1C265.648,390.943,266.1,392.015,267.337,392.015Z" transform="translate(-257.778 -386.848)" fill="#fff"/>
      <path id="패스_6" data-name="패스 6" d="M272.974,386.955h1.3c1.292,0,2.834-.042,2.834,1.6a1.358,1.358,0,0,1-1.241,1.367v.018c.327.024.517.346.638.607l.965,2.305h-1.345l-.723-1.841c-.173-.438-.327-.607-.836-.607h-.387v2.448h-1.206Zm1.206,2.516h.4c.595,0,1.275-.084,1.275-.819,0-.709-.671-.769-1.275-.769h-.4Z" transform="translate(-258.312 -386.855)" fill="#fff"/>
      <path id="패스_7" data-name="패스 7" d="M279.932,386.955h3.55v.928h-2.344v1.453h2.145v.928h-2.145v1.655H283.5v.928h-3.567Z" transform="translate(-258.744 -386.855)" fill="#fff"/>
      <path id="패스_8" data-name="패스 8" d="M287.958,386.955h1.361l2.361,5.893h-1.335l-.517-1.351h-2.438l-.525,1.351h-1.249Zm.663,1.183H288.6l-.87,2.432h1.758Z" transform="translate(-259.097 -386.855)" fill="#fff"/>
      <path id="패스_9" data-name="패스 9" d="M300.569,386.848a3.05,3.05,0,1,1-2.948,3.03A2.781,2.781,0,0,1,300.569,386.848Zm0,5.167c1.23,0,1.688-1.072,1.688-2.136,0-1.038-.491-2.1-1.688-2.1s-1.689,1.063-1.689,2.1C298.88,390.943,299.335,392.015,300.569,392.015Z" transform="translate(-259.843 -386.848)" fill="#fff"/>
      <path id="패스_10" data-name="패스 10" d="M310.671,392.757a6.192,6.192,0,0,1-1.368.187c-1.947,0-3.3-.955-3.3-2.948a2.955,2.955,0,0,1,3.3-3.148,4.074,4.074,0,0,1,1.362.244l-.086,1a2.52,2.52,0,0,0-1.3-.312,1.985,1.985,0,0,0-2.014,2.135,1.959,1.959,0,0,0,2.042,2.1,3.418,3.418,0,0,0,1.318-.245Z" transform="translate(-260.364 -386.848)" fill="#fff"/>
      <path id="패스_11" data-name="패스 11" d="M313.164,386.955h3.548v.928h-2.343v1.453h2.145v.928h-2.145v1.655h2.362v.928h-3.567Z" transform="translate(-260.809 -386.855)" fill="#fff"/>
      <path id="패스_12" data-name="패스 12" d="M321.189,386.955h1.361l2.361,5.893h-1.335l-.517-1.351H320.62l-.525,1.351h-1.249Zm.663,1.183h-.017l-.87,2.432h1.757Z" transform="translate(-261.163 -386.855)" fill="#fff"/>
      <path id="패스_13" data-name="패스 13" d="M327.31,386.955h1.483l2.291,4.408h.017v-4.408h1.154v5.893h-1.472l-2.3-4.407h-.017v4.407H327.31Z" transform="translate(-261.689 -386.855)" fill="#fff"/>
      <path id="패스_14" data-name="패스 14" d="M339.033,386.955h3.343v.928H340.24v1.453h2.033v.928H340.24v2.584h-1.207Z" transform="translate(-262.417 -386.855)" fill="#fff"/>
      <path id="패스_15" data-name="패스 15" d="M347.5,386.848a3.05,3.05,0,1,1-2.945,3.03A2.782,2.782,0,0,1,347.5,386.848Zm0,5.167c1.233,0,1.689-1.072,1.689-2.136,0-1.038-.49-2.1-1.689-2.1s-1.688,1.063-1.688,2.1C345.808,390.943,346.265,392.015,347.5,392.015Z" transform="translate(-262.76 -386.848)" fill="#fff"/>
      <path id="패스_16" data-name="패스 16" d="M353.2,386.955H354.4v3.4c0,1.005.326,1.664,1.249,1.664s1.249-.658,1.249-1.664v-3.4h1.206v3.766c0,1.578-.914,2.229-2.455,2.229s-2.456-.651-2.456-2.229Z" transform="translate(-263.298 -386.855)" fill="#fff"/>
      <path id="패스_17" data-name="패스 17" d="M361.047,386.955h1.482l2.291,4.408h.017v-4.408h1.154v5.893h-1.472l-2.3-4.407H362.2v4.407h-1.154Z" transform="translate(-263.785 -386.855)" fill="#fff"/>
      <path id="패스_18" data-name="패스 18" d="M368.978,386.955h1.645c1.843,0,3.472.609,3.472,2.948s-1.629,2.946-3.472,2.946h-1.645Zm1.206,4.965h.672a2.019,2.019,0,0,0,0-4.036h-.672Z" transform="translate(-264.278 -386.855)" fill="#fff"/>
      <path id="패스_19" data-name="패스 19" d="M378.527,386.955h1.361l2.361,5.893h-1.335L380.4,391.5h-2.438l-.525,1.351h-1.249Zm.663,1.183h-.017l-.87,2.432h1.757Z" transform="translate(-264.726 -386.855)" fill="#fff"/>
      <path id="패스_20" data-name="패스 20" d="M385.03,387.883h-1.723v-.928h4.653v.928h-1.724v4.965H385.03Z" transform="translate(-265.169 -386.855)" fill="#fff"/>
      <path id="패스_21" data-name="패스 21" d="M390.211,386.955h1.207v5.893h-1.207Z" transform="translate(-265.598 -386.855)" fill="#fff"/>
      <path id="패스_22" data-name="패스 22" d="M396.746,386.848a3.05,3.05,0,1,1-2.945,3.03A2.782,2.782,0,0,1,396.746,386.848Zm0,5.167c1.233,0,1.689-1.072,1.689-2.136,0-1.038-.49-2.1-1.689-2.1s-1.688,1.063-1.688,2.1C395.058,390.943,395.515,392.015,396.746,392.015Z" transform="translate(-265.821 -386.848)" fill="#fff"/>
      <path id="패스_23" data-name="패스 23" d="M402.43,386.955h1.482l2.291,4.408h.017v-4.408h1.154v5.893H405.9l-2.3-4.407h-.017v4.407H402.43Z" transform="translate(-266.357 -386.855)" fill="#fff"/>
    </g>
  </g>
</svg>
