<svg xmlns="http://www.w3.org/2000/svg" width="36.629" height="36.63" viewBox="0 0 36.629 36.63">
  <g id="그룹_35" data-name="그룹 35" transform="translate(-1577.126 -3297.685)">
    <path id="패스_63" data-name="패스 63" d="M140.669,298.445a7.325,7.325,0,0,1-7.327,7.325H111.365a7.326,7.326,0,0,1-7.325-7.325V276.467a7.326,7.326,0,0,1,7.325-7.327h21.976a7.326,7.326,0,0,1,7.327,7.327Z" transform="translate(1473.086 3028.545)" fill="#fff" opacity="0.8"/>
    <g id="페이스북" transform="translate(1588.249 3302.181)" opacity="0.8">
      <g id="그룹_20" data-name="그룹 20" transform="translate(0 0)">
        <path id="패스_62" data-name="패스 62" d="M37.7,44.11V30.447H33.2V25.719h4.5v-5.1A5.255,5.255,0,0,1,42.731,15.5h5.045v4.281H45.448c-1.154,0-2.68.931-2.68,2.085v3.872H47.31v4.709H42.768V44.11H37.7Z" transform="translate(-33.2 -15.5)" fill="#3d3d3d"/>
      </g>
    </g>
  </g>
</svg>
