<svg xmlns="http://www.w3.org/2000/svg" width="36.629" height="36.63" viewBox="0 0 36.629 36.63">
  <g id="그룹_34" data-name="그룹 34" transform="translate(-1530.296 -3297.685)">
    <path id="패스_53" data-name="패스 53" d="M140.669,298.445a7.325,7.325,0,0,1-7.327,7.325H111.365a7.326,7.326,0,0,1-7.325-7.325V276.467a7.326,7.326,0,0,1,7.325-7.327h21.976a7.326,7.326,0,0,1,7.327,7.327Z" transform="translate(1426.256 3028.545)" fill="#fff" opacity="0.8"/>
    <path id="패스_54" data-name="패스 54" d="M155.239,235.888a3.023,3.023,0,0,0-2.133-2.133c-1.883-.505-9.429-.505-9.429-.505s-7.547,0-9.429.505a3.025,3.025,0,0,0-2.134,2.133,33.745,33.745,0,0,0,0,11.618,3.02,3.02,0,0,0,2.134,2.133c1.883.5,9.429.5,9.429.5s7.546,0,9.429-.5a3.023,3.023,0,0,0,2.133-2.133,33.747,33.747,0,0,0,0-11.618Zm-13.976,9.429v-7.24l6.27,3.621Z" transform="translate(1405.356 3074.784)" fill="#3d3d3d" opacity="0.8"/>
  </g>
</svg>
