<svg xmlns="http://www.w3.org/2000/svg" width="36.629" height="36.63" viewBox="0 0 36.629 36.63">
  <g id="그룹_36" data-name="그룹 36" transform="translate(-1623.371 -3297.685)">
    <path id="패스_64" data-name="패스 64" d="M140.669,298.445a7.325,7.325,0,0,1-7.327,7.325H111.365a7.326,7.326,0,0,1-7.325-7.325V276.467a7.326,7.326,0,0,1,7.325-7.327h21.976a7.326,7.326,0,0,1,7.327,7.327Z" transform="translate(1519.331 3028.545)" fill="#fff" opacity="0.8"/>
    <g id="인스타" transform="translate(1626.719 3300.876)" opacity="0.8">
      <g id="그룹_18" data-name="그룹 18" transform="translate(0 0)">
        <path id="SVGID_1_" d="M15.066,9.1a10.761,10.761,0,0,0-3.635.7A7.541,7.541,0,0,0,8.8,11.531a7.179,7.179,0,0,0-1.716,2.65,11.2,11.2,0,0,0-.7,3.635c-.068,1.6-.085,2.106-.085,6.167.017,4.06.034,4.57.1,6.166a10.564,10.564,0,0,0,.7,3.618,7.451,7.451,0,0,0,1.733,2.65,7.179,7.179,0,0,0,2.65,1.716,11.2,11.2,0,0,0,3.635.7c1.6.068,2.106.085,6.167.085,4.06-.017,4.57-.017,6.167-.1a10.761,10.761,0,0,0,3.635-.7,7.451,7.451,0,0,0,2.65-1.733,7.179,7.179,0,0,0,1.716-2.65,11.2,11.2,0,0,0,.7-3.635c.068-1.6.085-2.106.085-6.166-.017-4.06-.017-4.57-.1-6.167a10.761,10.761,0,0,0-.7-3.635A7.451,7.451,0,0,0,33.7,11.48a7.179,7.179,0,0,0-2.65-1.716,11.2,11.2,0,0,0-3.635-.7C25.8,9.017,25.292,9,21.232,9c-4.06.017-4.57.034-6.167.1m.17,27.027a8.3,8.3,0,0,1-2.769-.51A5,5,0,0,1,9.63,32.783,8.277,8.277,0,0,1,9.1,30.014c-.068-1.58-.085-2.056-.1-6.048,0-3.992,0-4.468.068-6.048a8.3,8.3,0,0,1,.51-2.769,5,5,0,0,1,2.837-2.837,8.746,8.746,0,0,1,2.769-.527c1.58-.068,2.056-.085,6.031-.1,3.992,0,4.468,0,6.048.068a8.3,8.3,0,0,1,2.769.51,4.5,4.5,0,0,1,1.716,1.121A4.63,4.63,0,0,1,32.869,15.1a8.746,8.746,0,0,1,.527,2.769c.068,1.58.085,2.056.1,6.031.017,3.992,0,4.468-.068,6.048a8.529,8.529,0,0,1-.51,2.786,5,5,0,0,1-2.837,2.837,8.746,8.746,0,0,1-2.769.527c-1.58.068-2.056.085-6.048.1-3.975.017-4.451,0-6.031-.068m12.2-20.164a1.792,1.792,0,1,0,1.784-1.8,1.8,1.8,0,0,0-1.784,1.8m-13.845,8a7.678,7.678,0,1,0,7.661-7.7,7.67,7.67,0,0,0-7.661,7.7m2.684,0a4.986,4.986,0,1,1,4.994,4.977,5,5,0,0,1-4.994-4.977" transform="translate(-6.3 -9)" fill="#3d3d3d"/>
      </g>
    </g>
  </g>
</svg>
