<svg xmlns="http://www.w3.org/2000/svg" width="36.629" height="36.63" viewBox="0 0 36.629 36.63">
  <g id="그룹_17" data-name="그룹 17" transform="translate(0 0)" opacity="0.8">
    <path id="패스_43" data-name="패스 43" d="M140.669,298.445a7.325,7.325,0,0,1-7.327,7.325H111.365a7.326,7.326,0,0,1-7.325-7.325V276.467a7.326,7.326,0,0,1,7.325-7.327h21.976a7.326,7.326,0,0,1,7.327,7.327Z" transform="translate(-104.04 -269.14)" fill="#fff"/>
    <path id="패스_44" data-name="패스 44" d="M148.441,288.29H126.984a4.962,4.962,0,0,0-4.954,4.971v11.794a4.962,4.962,0,0,0,4.954,4.971h7.391l2.522,4.107a1.1,1.1,0,0,0,.082.117.845.845,0,0,0,1.463,0,.607.607,0,0,0,.085-.123l2.522-4.107h7.391a4.962,4.962,0,0,0,4.954-4.971V293.26A4.962,4.962,0,0,0,148.441,288.29Z" transform="translate(-119.398 -285.488)" fill="#3d3d3d"/>
    <g id="그룹_15" data-name="그룹 15" transform="translate(6.044 8.974)">
      <g id="그룹_14" data-name="그룹 14" transform="translate(0 0)">
        <path id="패스_45" data-name="패스 45" d="M148.9,334a2.551,2.551,0,0,0-1.633.756V331.71H145.35v8h1.94v-.626a1.842,1.842,0,0,0,1.612.827,2.83,2.83,0,0,0,2.707-2.986S151.511,334,148.9,334Zm-.423,4.222a1.234,1.234,0,1,1,1.233-1.235A1.235,1.235,0,0,1,148.481,338.221Z" transform="translate(-145.35 -331.53)" fill="#fff"/>
        <path id="패스_46" data-name="패스 46" d="M192.35,330.48v1.851s.876-.039.876,1.592v4.736h1.851v-5.173S195.156,330.48,192.35,330.48Z" transform="translate(-185.474 -330.48)" fill="#fff"/>
        <path id="패스_47" data-name="패스 47" d="M223.411,347.52s-3.173,0-3.173,2.963a2.868,2.868,0,0,0,3.173,2.923s3.246,0,3.246-2.923A2.919,2.919,0,0,0,223.411,347.52Zm0,4.2a1.234,1.234,0,1,1,1.233-1.235A1.235,1.235,0,0,1,223.411,351.717Z" transform="translate(-209.281 -345.027)" fill="#fff"/>
        <path id="패스_48" data-name="패스 48" d="M275.078,347.711v.537a2.1,2.1,0,0,0-1.611-.732,2.649,2.649,0,0,0-2.717,2.942s-.031,2.849,2.642,2.849a2.2,2.2,0,0,0,1.685-.732v.448s.135,1.4-1.223,1.4h-.462v1.7h.746a2.787,2.787,0,0,0,2.806-3v-5.418Zm-1.148,4a1.234,1.234,0,1,1,1.233-1.235A1.234,1.234,0,0,1,273.929,351.714Z" transform="translate(-252.403 -345.024)" fill="#fff"/>
      </g>
    </g>
  </g>
</svg>
